<svg width="217" height="200" viewBox="0 0 217 200" fill="none" xmlns="http://www.w3.org/2000/svg">
<path fill-rule="evenodd" clip-rule="evenodd" d="M102.922 104.727C97.5984 105.341 93.5131 105.267 90.6664 104.506C87.8197 103.745 85.5746 102.125 83.9313 99.6479C82.1399 95.8588 81.1462 93.6873 80.9501 93.1335C79.9895 90.4193 79.883 87.7516 80.0668 85.9567C80.3069 83.6124 81.5951 80.5577 83.9313 76.7924C84.264 74.1746 84.8161 71.8559 85.5875 69.8364C86.3588 67.8168 87.9046 64.9093 90.2248 61.1138L90.556 48.6371C91.5349 45.7812 92.455 43.757 93.3163 42.5644C94.1776 41.3718 95.1713 40.7462 96.2974 40.6874C97.2476 40.5971 98.1309 40.818 98.9473 41.3499C99.7637 41.8818 101.31 43.2435 103.585 45.4351C105.464 42.1562 107.598 39.6535 109.989 37.9271C112.379 36.2007 115.544 34.8757 119.484 33.9522L120.036 32.8481L120.103 26.3536L118.27 10.5447H115.84L119.594 5.02402C119.929 3.80758 120.261 2.92428 120.588 2.37411C120.916 1.82394 121.527 1.19829 122.423 0.497172C122.44 0.293877 123.176 0.183379 124.633 0.16568C126.09 0.147981 128.385 0.221646 131.519 0.386675C132.857 0.693929 133.777 1.09878 134.279 1.60122C134.782 2.10366 135.223 3.17098 135.604 4.80319L140.987 10.5524L137.592 10.7655L137.26 21.2547C136.788 23.0536 136.346 24.2682 135.935 24.8983C135.524 25.5285 134.862 26.007 133.948 26.3337L128.538 26.6649L127.875 33.0689L128.317 33.9522C131.08 34.742 132.957 35.3677 133.948 35.8292C136.327 36.9375 138.48 38.5424 140.131 41.3499C141.287 43.3153 142.484 46.0305 144.106 48.8579C145.534 51.3474 148.147 55.7271 151.945 61.9971L155.699 65.3095L157.576 69.0635L162.103 72.4863L164.201 65.6407C159.932 59.1631 157.797 55.0411 157.797 53.2745C157.797 52.5361 158.243 51.8401 158.68 51.3974C159.289 50.7811 160.126 50.4023 161.551 50.5141C162.502 50.5887 163.422 51.1775 164.311 52.2807L177.009 86.3983C175.745 90.54 174.641 93.6315 173.696 95.673C172.752 97.7145 171.353 99.7387 169.501 101.746C166.831 103.243 164.586 104.126 162.766 104.396C160.945 104.665 157.964 104.407 153.822 103.623C152.372 102.959 151.415 102.333 150.952 101.746C149.233 99.5677 148.515 96.8049 147.639 95.3418C146.409 93.2866 145.673 91.3728 145.431 89.6003L139.689 70.9405L114.847 70.1676L112.528 89.0482C111.261 94.1796 109.899 97.9337 108.443 100.31C106.987 102.687 105.146 104.159 102.922 104.727Z" fill="white"/>
<path fill-rule="evenodd" clip-rule="evenodd" d="M104.631 108.794C104.182 108.713 103.85 108.673 103.637 108.674C102.818 108.678 102.15 108.635 101.758 108.011C101.214 107.143 101.361 106.112 102.2 104.917L104.521 104.144H105.626L113.692 104.475L116.234 104.144L125.184 103.812C126.141 104.254 126.473 105.101 126.178 106.354C125.884 107.606 125.073 108.379 123.747 108.674L121.095 108.794L103.195 190.874H91.7031C93.6704 177.979 95.2542 168.282 96.4545 161.781C97.6549 155.28 100.38 137.618 104.631 108.794ZM132.698 108.794C132.68 108.534 131.98 108.493 130.598 108.674C129.42 108.085 128.941 107.164 129.162 105.912C129.383 104.659 129.935 103.996 130.819 103.923L132.477 104.144H137.56L142.642 104.475L148.278 103.923C150.046 104.07 150.93 104.88 150.93 106.354C150.93 107.191 150.647 107.626 150.267 108.011C150.074 108.206 149.706 108.427 149.162 108.674L147.394 108.794L151.924 190.985H139.99C138.383 176.204 137.351 165.843 136.897 159.901C136.355 152.823 133.289 117.643 132.698 108.794Z" fill="white"/>
<path fill-rule="evenodd" clip-rule="evenodd" d="M104.631 108.684H121.095L103.195 190.763H91.7031C93.6704 177.869 95.2542 168.171 96.4545 161.671C97.6549 155.17 100.38 137.508 104.631 108.684ZM132.698 108.684H147.394L151.924 190.874H139.99C138.383 176.094 137.351 165.732 136.897 159.79C136.355 152.712 133.289 117.533 132.698 108.684Z" stroke="#263E4B" stroke-width="1.5"/>
<path fill-rule="evenodd" clip-rule="evenodd" d="M114.907 35.4536L102.449 35.5121C96.2335 35.5413 91.1233 40.4203 90.8065 46.6277L90.5977 50.7191C90.7923 48.6152 91.0501 47.1403 91.3711 46.2943C91.8807 44.9513 92.4694 44.1789 93.1391 43.3076C94.1517 41.9901 95.2987 40.8785 96.233 40.6527C98.3693 40.1365 100.763 41.7958 103.415 45.6306C103.86 44.7715 104.228 44.1078 104.52 43.6394C105.104 42.7043 105.726 41.6945 106.841 40.6527C109.051 38.5878 111.739 36.8548 114.907 35.4536Z" fill="#BAD9EA"/>
<path fill-rule="evenodd" clip-rule="evenodd" d="M104.742 103.927C105.879 104.342 108.015 104.526 111.151 104.48C112.859 104.455 115.933 103.945 118.554 103.816C120.016 103.745 122.226 103.745 125.184 103.816L127.726 97.0687H130.157L130.93 103.816C133.516 103.978 135.358 104.089 136.455 104.148C138.815 104.276 140.778 104.37 142.311 104.37C144.914 104.37 146.829 104.185 148.057 103.816L142.422 72.2899L116.234 73.2855C115.892 78.0862 114.639 83.3591 112.477 89.1041C112.016 90.3285 111.943 91.8761 111.483 93.4182C110.782 95.7681 110.01 98.041 109.162 99.6129C108.358 101.104 106.885 102.542 104.742 103.927Z" fill="#BAD9EA"/>
<path d="M147.881 103.89L145.351 89.1321C145.336 89.0418 145.396 88.956 145.486 88.9405C145.577 88.925 145.662 88.9857 145.678 89.076L148.196 103.761H148.553C149.957 103.761 151.095 104.9 151.095 106.305C151.095 107.711 149.957 108.85 148.553 108.85H131.118C129.873 108.85 128.865 107.84 128.865 106.594C128.865 106.49 128.872 106.386 128.886 106.282L129.019 105.333C129.138 104.478 129.799 103.809 130.637 103.671L130.005 97.2346H127.839L125.41 103.684C126.088 103.841 126.568 104.474 126.513 105.189C126.508 105.251 126.499 105.312 126.486 105.373L126.284 106.339C125.979 107.802 124.69 108.85 123.198 108.85H102.983C102.052 108.85 101.297 108.094 101.297 107.161C101.297 106.985 101.325 106.809 101.379 106.642C101.526 106.185 101.71 105.596 101.93 104.874C101.957 104.787 102.05 104.737 102.137 104.764C102.225 104.791 102.274 104.884 102.247 104.971C102.027 105.695 101.842 106.286 101.694 106.744C101.651 106.879 101.628 107.019 101.628 107.161C101.628 107.91 102.235 108.518 102.983 108.518H123.198C124.533 108.518 125.686 107.58 125.96 106.271L126.162 105.305C126.172 105.258 126.178 105.211 126.182 105.164C126.229 104.559 125.778 104.031 125.175 103.982C123.804 103.955 122.834 103.942 122.265 103.941C120.727 103.939 116.389 104.191 115.481 104.313C113.421 104.589 112.33 104.629 110.548 104.569C110.49 104.567 110.49 104.567 110.432 104.565C109.795 104.543 109.49 104.536 109.084 104.536C107.61 104.536 106.509 104.498 105.778 104.424C104.921 104.337 104.533 104.214 104.577 103.904L104.905 103.95C104.908 103.926 104.902 103.908 104.897 103.9C104.921 103.918 104.968 103.94 105.038 103.962C105.201 104.014 105.46 104.058 105.812 104.094C106.529 104.167 107.621 104.204 109.084 104.204C109.495 104.204 109.803 104.211 110.443 104.233C110.501 104.235 110.501 104.235 110.559 104.237C112.324 104.296 113.397 104.257 115.437 103.984C116.361 103.86 120.713 103.607 122.266 103.609C122.821 103.61 123.755 103.623 125.069 103.648L127.569 97.0101C127.594 96.9455 127.655 96.9028 127.724 96.9028H130.155H131.592C131.683 96.9028 131.757 96.977 131.757 97.0687C131.757 97.1603 131.683 97.2346 131.592 97.2346H130.338L130.972 103.69C131.704 103.81 133.166 103.872 135.349 103.872C136.169 103.872 140.178 104.096 141.331 104.204C142.645 104.328 144.83 104.224 147.881 103.89V103.89ZM148.062 104.093L148.074 104.203C144.921 104.552 142.665 104.663 141.3 104.535C140.156 104.427 136.157 104.204 135.349 104.204C133.015 104.204 131.499 104.134 130.786 103.993L130.788 103.986C130.047 104.063 129.45 104.636 129.347 105.378L129.214 106.328C129.202 106.416 129.196 106.505 129.196 106.594C129.196 107.657 130.056 108.518 131.118 108.518H148.553C149.774 108.518 150.763 107.527 150.763 106.305C150.763 105.084 149.774 104.093 148.553 104.093H148.062Z" fill="#263E4B"/>
<path d="M128.765 26.6593L128.122 33.4581C133.36 35.2402 136.709 36.7879 138.182 38.1144C140.092 39.8346 144.989 49.7764 147.499 56.301C148.257 58.2716 149.431 59.5197 152.282 61.8298L152.522 62.024C155.385 64.3441 156.555 65.5966 157.272 67.5876C158.378 70.6614 160.591 71.4 164.008 69.8163C164.091 69.7778 164.189 69.814 164.228 69.8972C164.266 69.9803 164.23 70.0789 164.147 70.1175C160.564 71.7786 158.136 70.9686 156.96 67.7001C156.271 65.7854 155.13 64.5646 152.314 62.282L152.074 62.0877C149.179 59.7419 147.975 58.4631 147.189 56.4203C144.702 49.9528 139.815 40.0311 137.96 38.3612C136.52 37.0642 133.159 35.516 127.891 33.7302C127.819 33.7055 127.772 33.634 127.78 33.5574L128.432 26.6593H126.508C126.417 26.6593 126.342 26.585 126.342 26.4934C126.342 26.4018 126.417 26.3275 126.508 26.3275H128.612C128.613 26.3274 128.615 26.3274 128.616 26.3275H132.297C134.578 26.3275 135.901 25.3991 136.591 23.523C137.146 22.0154 137.282 20.2728 137.282 16.5478V14.0106C137.282 13.9756 137.282 13.947 137.282 13.8825C137.283 12.6491 137.226 11.9384 136.962 10.8548C136.956 10.8484 136.949 10.8404 136.939 10.8312C136.914 10.8054 136.878 10.7715 136.832 10.7301H121.029C120.937 10.7301 120.863 10.6558 120.863 10.5642C120.863 10.4725 120.937 10.3982 121.029 10.3982H136.895C136.935 10.3982 136.974 10.4131 137.005 10.4399C137.2 10.6134 137.259 10.6716 137.277 10.7458C137.555 11.8775 137.615 12.6137 137.613 13.8829C137.613 13.9474 137.613 13.9758 137.613 14.0106V16.5478C137.613 20.3148 137.476 22.0792 136.902 23.6378C136.164 25.644 134.717 26.6593 132.297 26.6593H128.765ZM177.178 86.1811L177.496 86.2748C174.72 95.7145 171.771 101.217 168.614 102.792C163.645 105.272 157.569 105.463 152.623 103.034C151.969 102.713 151.456 102.265 150.935 101.576C150.564 101.085 150.198 100.494 149.613 99.4683C149.46 99.1999 148.877 98.1667 148.791 98.0151C148.425 97.3691 148.109 96.8191 147.771 96.246C147.309 95.461 146.654 93.7279 145.798 91.0349L146.114 90.9343C146.962 93.6031 147.612 95.3214 148.057 96.0775C148.395 96.6524 148.713 97.2038 149.08 97.8514C149.166 98.0035 149.749 99.0362 149.901 99.3038C150.479 100.318 150.84 100.899 151.2 101.376C151.691 102.025 152.165 102.44 152.769 102.736C157.619 105.118 163.587 104.93 168.466 102.495C171.511 100.976 174.427 95.5347 177.178 86.1811Z" fill="#263E4B"/>
<path fill-rule="evenodd" clip-rule="evenodd" d="M131.702 35.0111L133.691 35.7854C135.091 40.0627 136.159 43.7132 136.896 46.7368C137.632 49.7604 138.111 54.2589 138.332 60.2324L135.57 59.458C135.791 54.6645 135.386 50.4241 134.354 46.7368C133.905 45.1307 133.021 41.2222 131.702 35.0111ZM114.796 35.4536L116.675 34.6792C117.117 37.9487 117.338 40.5298 117.338 42.4226C117.338 44.3154 117.338 46.2328 117.338 48.1748L114.465 52.2678C114.907 50.9403 115.128 47.9536 115.128 43.3076C115.128 38.6615 115.017 36.0436 114.796 35.4536Z" fill="#BAD9EA"/>
<path d="M131.653 35.0456L131.589 34.7451L133.937 35.6592L133.962 35.7338C135.363 40.0148 136.432 43.6693 137.17 46.6975C137.909 49.7341 138.389 54.2425 138.611 60.2262L138.619 60.4535L135.511 59.5822L135.517 59.4504C135.737 54.6736 135.334 50.4507 134.308 46.7815C133.857 45.1707 132.973 41.2605 131.653 35.0456ZM134.627 46.692C135.654 50.3636 136.063 54.5775 135.854 59.3338L138.271 60.0112C138.047 54.1611 137.572 49.7483 136.848 46.7761C136.116 43.7747 135.058 40.153 133.671 35.9116L132.041 35.2771C133.324 41.3101 134.186 45.1167 134.627 46.692ZM114.754 35.5118L114.698 35.3613L116.923 34.444L116.952 34.657C117.395 37.9331 117.616 40.5211 117.616 42.4226V48.2273L114.062 53.2903L114.42 52.2153C114.855 50.911 115.075 47.935 115.075 43.3076C115.075 38.6982 114.964 36.0728 114.754 35.5118ZM115.406 43.3076C115.406 47.1435 115.256 49.852 114.953 51.4444L117.285 48.1224V42.4226C117.285 40.5797 117.074 38.0764 116.652 34.9146L115.11 35.5502C115.311 36.3808 115.406 38.9449 115.406 43.3076Z" fill="#263E4B"/>
<path d="M128.563 35.5007L128.88 35.4064L143.912 86.1967C144.771 90.686 147.867 92.9204 153.252 92.9204C158.639 92.9204 163.069 89.3203 166.545 82.0885L166.843 82.2324C163.317 89.5685 158.785 93.2523 153.252 93.2523C147.716 93.2523 144.477 90.9145 143.59 86.2751L128.563 35.5007ZM136.735 76.5787L137.062 76.6294C135.356 87.6912 132.15 93.2523 127.396 93.2523C123.549 93.2523 120.989 81.271 119.937 58.3594C119.739 54.0393 119.628 46.6628 119.605 36.2283L119.937 36.2275C119.96 46.6575 120.07 54.0302 120.268 58.3442C121.307 80.9574 123.862 92.9204 127.396 92.9204C131.923 92.9204 135.052 87.4934 136.735 76.5787Z" fill="#263E4B"/>
<path fill-rule="evenodd" clip-rule="evenodd" d="M153.244 71.1375L164.822 69.9205L165.507 76.4362L153.929 77.6531L153.244 71.1375ZM142.506 59.4569L141.417 49.1042C141.854 47.9848 143.004 47.3272 144.868 47.1312C146.732 46.9353 147.994 47.3395 148.654 48.3437L149.742 58.6963L142.506 59.4569ZM172.898 56.2625L165.662 57.0231L164.574 46.6704C165.01 45.551 166.16 44.8933 168.024 44.6974C169.888 44.5015 171.15 44.9057 171.81 45.9099L172.898 56.2625Z" fill="#263E4B"/>
<path fill-rule="evenodd" clip-rule="evenodd" d="M141.597 70.9523L139.915 54.9527C140.62 53.2196 142.463 52.1963 145.445 51.8828C148.428 51.5694 150.443 52.1871 151.493 53.7358L153.175 69.7354L141.597 70.9523ZM176.331 67.3016L164.753 68.5185L163.071 52.5189C163.776 50.7858 165.619 49.7625 168.601 49.449C171.584 49.1356 173.6 49.7532 174.649 51.302L176.331 67.3016Z" fill="white"/>
<path fill-rule="evenodd" clip-rule="evenodd" d="M141.526 70.9969L139.845 54.9974C140.549 53.2642 142.393 52.2409 145.375 51.9275C148.357 51.614 150.373 52.2317 151.423 53.7805L153.104 69.78L141.526 70.9969ZM176.26 67.3462L164.682 68.5631L163.001 52.5636C163.705 50.8304 165.549 49.8071 168.531 49.4937C171.513 49.1802 173.529 49.7979 174.579 51.3467L176.26 67.3462Z" fill="white" stroke="#263E4B" stroke-width="1.5" stroke-linecap="round" stroke-linejoin="round"/>
<path fill-rule="evenodd" clip-rule="evenodd" d="M141.241 88.6852L139.295 70.176C140.302 68.1508 142.855 66.9228 146.956 66.4918C151.057 66.0608 153.81 66.7311 155.215 68.5027L157.161 87.012L141.241 88.6852ZM180.317 84.5782L164.397 86.2514L162.452 67.7422C163.458 65.717 166.012 64.489 170.112 64.058C174.213 63.627 176.966 64.2973 178.371 66.0689L180.317 84.5782Z" fill="white"/>
<path d="M141.206 88.8557C141.115 88.8652 141.033 88.7991 141.024 88.708L139.078 70.1987C139.075 70.1673 139.081 70.1357 139.095 70.1074C140.132 68.0205 142.735 66.7685 146.886 66.3322C151.038 65.8959 153.844 66.5793 155.293 68.405C155.312 68.4297 155.325 68.4595 155.328 68.4908L157.273 87.0001C157.283 87.0912 157.217 87.1729 157.126 87.1824L141.206 88.8557ZM156.926 86.8697L155.003 68.574C153.631 66.8843 150.942 66.2396 146.921 66.6622C142.901 67.0848 140.404 68.2745 139.413 70.2126L141.336 88.5083L156.926 86.8697ZM180.429 84.5663C180.439 84.6574 180.373 84.7391 180.282 84.7486L164.362 86.4219C164.271 86.4314 164.189 86.3653 164.18 86.2742L162.234 67.7649C162.231 67.7335 162.237 67.7019 162.251 67.6736C163.288 65.5867 165.892 64.3347 170.043 63.8984C174.194 63.4621 177 64.1455 178.449 65.9712C178.469 65.9959 178.481 66.0256 178.484 66.057L180.429 84.5663ZM180.082 84.4359L178.159 66.1402C176.787 64.4505 174.098 63.8058 170.077 64.2284C166.057 64.651 163.56 65.8407 162.569 67.7788L164.492 86.0745L180.082 84.4359Z" fill="#263E4B"/>
<path fill-rule="evenodd" clip-rule="evenodd" d="M149.433 90.5689C145.037 91.0309 141.345 90.19 141.188 88.6906C141.03 87.1913 144.466 85.6012 148.862 85.1392C153.258 84.6771 156.95 85.518 157.108 87.0174C157.265 88.5168 153.829 90.1068 149.433 90.5689ZM172.589 88.1351C168.193 88.5971 164.501 87.7562 164.344 86.2568C164.186 84.7575 167.622 83.1674 172.018 82.7054C176.415 82.2433 180.106 83.0842 180.264 84.5836C180.421 86.083 176.985 87.673 172.589 88.1351Z" fill="#263E4B"/>
<path d="M137.276 74.0807C138.666 73.9346 139.675 72.6889 139.528 71.2983C139.382 69.9077 138.137 68.8988 136.747 69.0449C135.357 69.191 134.349 70.4367 134.495 71.8273C134.641 73.2179 135.887 74.2268 137.276 74.0807ZM137.242 73.7506C136.034 73.8776 134.952 73.0009 134.825 71.7926C134.698 70.5844 135.574 69.5019 136.782 69.3749C137.99 69.248 139.072 70.1246 139.199 71.3329C139.326 72.5412 138.45 73.6237 137.242 73.7506Z" fill="#263E4B"/>
<path d="M84.2195 76.8185L86.4525 76.0056C86.5385 75.9743 86.6336 76.0188 86.6649 76.1049C86.6962 76.191 86.6518 76.2862 86.5658 76.3175L84.5804 77.0403L86.5935 78.2311C86.6723 78.2777 86.6984 78.3795 86.6518 78.4584C86.6053 78.5373 86.5036 78.5634 86.4248 78.5168L84.177 77.1871L84.1348 77.2025C84.1153 77.2096 84.0953 77.2128 84.0756 77.2125C80.0174 82.6227 79.0787 87.96 81.2481 93.2445C83.3629 98.3962 84.3134 100.235 85.9155 101.822C87.7626 103.651 90.3062 104.602 94.7042 105.09C102.998 106.008 107.842 103.257 109.999 97.1242C111.347 93.2924 112.118 90.6092 112.312 89.0832C112.323 88.9923 112.406 88.9279 112.497 88.9395C112.588 88.951 112.652 89.034 112.64 89.125C112.443 90.6812 111.667 93.3814 110.312 97.2344C108.101 103.519 103.109 106.355 94.6677 105.419C90.2023 104.925 87.5914 103.949 85.6824 102.058C84.0363 100.427 83.0744 98.5665 80.9415 93.3707C78.7131 87.9424 79.696 82.4531 83.8783 76.9233C84.3283 71.3086 86.3642 66.0535 89.9838 61.1608C93.5924 56.283 97.3112 52.616 101.142 50.1607C103.73 43.2938 107.489 38.6952 112.42 36.3748C114.876 35.2187 116.72 34.4502 117.954 34.0686C118.781 33.813 119.369 33.7189 119.698 33.8227L120.266 23.387C120.271 23.2955 120.349 23.2254 120.441 23.2299C120.532 23.2353 120.602 23.3136 120.597 23.4051L120.006 34.2611C119.995 34.4761 119.675 34.4674 119.675 34.2521C119.675 34.049 119.163 34.042 118.052 34.3857C116.836 34.7617 115.005 35.5251 112.561 36.6751C107.703 38.9611 103.993 43.5091 101.432 50.3292C101.42 50.3628 101.397 50.3914 101.366 50.4107C97.5566 52.8425 93.8508 56.4914 90.2502 61.3583C86.695 66.1639 84.6855 71.3164 84.2195 76.8185Z" fill="#263E4B"/>
<path fill-rule="evenodd" clip-rule="evenodd" d="M119.88 32.9093L118.328 36.8404C118.238 37.0675 118.35 37.3242 118.577 37.4139C118.666 37.4492 118.765 37.4544 118.857 37.4287L125.488 35.5891L129.876 37.1522C130.106 37.2341 130.358 37.1141 130.44 36.8841C130.489 36.7466 130.467 36.5937 130.381 36.4757L127.947 33.1306C127.495 33.5239 126.528 33.7205 125.044 33.7205C123.561 33.7205 121.84 33.4501 119.88 32.9093Z" fill="white"/>
<path d="M125.385 35.71L119.012 37.4779C118.885 37.5133 118.75 37.5061 118.627 37.4574C118.315 37.3339 118.162 36.9804 118.285 36.6679L119.837 32.7377C119.868 32.6589 119.954 32.6162 120.035 32.6387C121.981 33.1758 123.688 33.444 125.155 33.444C126.601 33.444 127.536 33.2538 127.949 32.8948C128.022 32.8309 128.134 32.8436 128.191 32.9222L130.625 36.2662C130.743 36.4286 130.774 36.639 130.707 36.8284C130.594 37.145 130.247 37.3103 129.93 37.1977L125.717 35.6968C125.724 35.7598 125.733 35.8336 125.743 35.9185C125.784 36.2784 125.846 36.8364 125.929 37.5926C126.095 39.1045 126.344 41.4092 126.675 44.5067C126.685 44.5978 126.619 44.6796 126.528 44.6894C126.437 44.6991 126.355 44.6332 126.346 44.5421C126.014 41.4448 125.766 39.1404 125.6 37.6288C125.517 36.8731 125.455 36.3157 125.414 35.9566C125.402 35.8599 125.393 35.7777 125.385 35.71ZM125.381 33.7743C125.417 33.9166 125.452 34.0749 125.485 34.2479C125.539 34.5298 125.582 34.8009 125.632 35.1587L125.653 35.3103C125.653 35.3144 125.654 35.3185 125.655 35.3224L130.041 36.885C130.185 36.9362 130.343 36.8611 130.394 36.7172C130.425 36.6311 130.411 36.5354 130.357 36.4616L128.023 33.2541C127.522 33.5878 126.644 33.7567 125.381 33.7743ZM125.328 35.3813C125.327 35.3736 125.326 35.3654 125.325 35.3567L125.303 35.2048C125.254 34.8521 125.212 34.5857 125.159 34.3106C125.121 34.1094 125.08 33.9299 125.038 33.7753C123.602 33.7619 121.953 33.5025 120.091 32.9979L118.593 36.7899C118.537 36.932 118.607 37.0926 118.749 37.1488C118.804 37.1709 118.866 37.1742 118.924 37.1581L125.328 35.3813Z" fill="#263E4B"/>
<path fill-rule="evenodd" clip-rule="evenodd" d="M102.754 70.8846C111.923 56.2528 117.19 48.1775 118.555 46.6589C119.62 45.4737 121.444 45.3762 122.629 46.4412C123.516 47.2382 123.822 48.4988 123.398 49.6134L120.102 58.274" fill="white"/>
<path d="M102.855 71.0506C112.014 56.4356 117.284 48.3552 118.639 46.8477C119.643 45.73 121.363 45.639 122.479 46.6444C123.314 47.3968 123.602 48.5861 123.201 49.6373L119.908 58.2928L120.218 58.4109L123.511 49.7554C123.96 48.576 123.638 47.2418 122.701 46.3977C121.448 45.2697 119.519 45.3718 118.393 46.6258C117.018 48.1556 111.754 56.2257 102.574 70.8743L102.855 71.0506Z" fill="#263E4B"/>
<path fill-rule="evenodd" clip-rule="evenodd" d="M123.235 17.0971C122.977 17.021 122.704 16.9801 122.421 16.9801C120.835 16.9801 119.549 18.2678 119.549 19.8562C119.549 21.2058 120.477 22.3383 121.73 22.6484L121.6 25.3245C121.565 26.0382 120.971 26.5961 120.257 26.586L116.847 26.5382C116.628 26.5351 116.411 26.5026 116.201 26.4414C114.912 26.0659 114.171 24.7165 114.547 23.4275L118.295 10.5642H118.738L118.74 10.5617L119.26 10.5642H121.206L121.207 10.5735L125.829 10.5958C125.295 13.0506 124.816 14.691 124.391 15.517C124.088 16.1068 123.702 16.6335 123.235 17.0971ZM138.94 10.5642C139.375 12.4078 138.702 13.3297 136.92 13.3297C135.138 13.3297 132.466 12.4078 128.902 10.5642H138.94Z" fill="#263E4B"/>
<path fill-rule="evenodd" clip-rule="evenodd" d="M98.0449 74.7461L113.049 61.3772C115.233 59.4311 118.066 58.3727 120.991 58.4104L138.076 58.6302C140.409 58.6603 142.317 60.5008 142.43 62.8319C142.537 65.0383 140.836 66.9138 138.629 67.0211C138.579 67.0236 138.529 67.025 138.479 67.0256L124.015 67.1838C123.13 67.1935 122.42 67.9187 122.43 68.8037C122.43 68.8042 122.43 68.8048 122.43 68.8054C122.441 69.7013 123.157 70.4288 124.053 70.4533L138.983 70.8625C141.017 70.9182 142.64 72.5778 142.651 74.6129C142.662 76.6184 141.045 78.2527 139.039 78.2633C139.033 78.2633 139.026 78.2634 139.02 78.2634H124.788C123.913 78.2634 123.203 78.973 123.203 79.8483C123.203 79.8546 123.204 79.861 123.204 79.8673C123.215 80.8298 123.829 81.6817 124.738 81.9974L133.851 85.161C135.428 85.7084 136.263 87.4306 135.715 89.0075C135.691 89.0775 135.664 89.1466 135.635 89.2147C134.905 90.904 133.004 91.7541 131.258 91.1716L116.444 86.228L108.429 91.5771C104.319 94.3204 98.7627 93.2122 96.0194 89.1017C95.7614 88.7152 95.5339 88.3091 95.339 87.8873C94.6409 86.3762 94.4232 84.2115 94.6858 81.3929C94.9244 78.8322 96.1247 76.4571 98.0449 74.7461Z" fill="white"/>
<path d="M97.4471 90.4575L100.242 88.6589C99.2829 87.7422 98.5085 86.6161 97.8545 85.3066C96.9065 83.4087 97.2181 79.7794 98.7715 74.3954L98.2422 74.867C96.3503 76.5528 95.1678 78.8944 94.9336 81.4191C94.675 84.2058 94.8903 86.3395 95.5732 87.8176C95.7635 88.2296 95.9854 88.6262 96.2369 89.0039C96.5947 89.5412 97.0014 90.0264 97.4471 90.4575ZM97.6979 90.6906C100.61 93.2942 105.016 93.7115 108.416 91.4424L109.189 90.9262C106.117 91.4816 103.618 91.0282 101.615 89.7415C101.216 89.4851 100.843 89.2013 100.494 88.8912L97.6979 90.6906ZM98.948 73.7938C98.9483 73.7929 98.9486 73.792 98.9489 73.7911C98.9677 73.7279 99.0208 73.6843 99.0818 73.6746L113.023 61.2523C115.238 59.2791 118.109 58.2062 121.073 58.2444L138.166 58.4644C140.585 58.4955 142.562 60.4051 142.679 62.8239C142.791 65.1216 141.021 67.0749 138.726 67.1868C138.674 67.1893 138.621 67.1909 138.569 67.1915L124.099 67.3498C123.306 67.3585 122.671 68.0085 122.68 68.8018L122.68 68.8034C122.689 69.6102 123.334 70.2653 124.139 70.2874L139.075 70.6967C141.197 70.7548 142.889 72.4874 142.901 74.612C142.912 76.7091 141.222 78.4181 139.128 78.4292L139.108 78.4293H124.87C124.088 78.4293 123.453 79.0646 123.453 79.8483C123.453 79.8568 123.453 79.8568 123.453 79.8653C123.464 80.7578 124.032 81.5477 124.875 81.8401L133.992 85.0051C135.653 85.5817 136.532 87.3971 135.956 89.0599C135.93 89.1345 135.902 89.2081 135.87 89.2805C135.107 91.0492 133.118 91.9392 131.292 91.3298L116.552 86.411L108.6 91.7185C104.412 94.5137 98.7532 93.3807 95.9611 89.1879C95.7001 88.796 95.4698 88.3844 95.2723 87.9569C94.5608 86.4169 94.34 84.2282 94.6035 81.3884C94.8455 78.78 96.0672 76.3608 98.0218 74.6191L98.948 73.7938ZM99.2388 73.979C97.5799 79.5668 97.2238 83.3018 98.1509 85.1582C99.0673 86.9928 100.221 88.4518 101.794 89.4622C103.841 90.7776 106.433 91.1908 109.681 90.4905C109.726 90.4808 109.771 90.4906 109.807 90.5142L116.503 86.0449L131.397 91.015C133.06 91.5699 134.871 90.7595 135.566 89.1488C135.594 89.0839 135.62 89.018 135.643 88.9512C136.159 87.4615 135.371 85.8352 133.883 85.3186L124.766 82.1537C123.792 81.8154 123.134 80.9017 123.122 79.8693C123.121 79.8588 123.121 79.8588 123.121 79.8483C123.121 78.8813 123.904 78.0974 124.87 78.0974H139.108L139.126 78.0974C141.038 78.0873 142.579 76.5276 142.569 74.6138C142.559 72.6682 141.009 71.0817 139.066 71.0284L124.13 70.6191C123.147 70.5922 122.36 69.7924 122.348 68.8074L122.348 68.8054C122.337 67.8289 123.12 67.0286 124.095 67.0179L138.565 66.8596C138.614 66.8591 138.662 66.8577 138.71 66.8553C140.822 66.7524 142.451 64.9547 142.348 62.84C142.239 60.5964 140.405 58.8251 138.162 58.7962L121.069 58.5762C118.188 58.5391 115.396 59.5821 113.244 61.5001L99.2388 73.979Z" fill="#263E4B"/>
<path fill-rule="evenodd" clip-rule="evenodd" d="M172.824 62.4927L172.826 62.9425C172.837 65.2367 174.7 67.0908 176.994 67.0908H180.138C177.54 67.2906 175.846 68.1387 175.056 69.635C173.811 71.9918 174.712 74.9114 177.069 76.1561C177.764 76.5229 178.537 76.7147 179.323 76.7147H180.691L180.317 76.8981C177.688 78.1884 176.603 81.3657 177.893 83.9949C177.971 84.1535 178.056 84.3081 178.149 84.4581C179.406 86.2078 181.843 86.6079 183.592 85.3516C183.709 85.2677 183.821 85.1773 183.928 85.081L186.368 82.8833C187.715 81.6696 188.348 79.8519 188.048 78.0639C188.026 77.9337 188.005 77.8158 187.984 77.7103C187.857 77.0653 187.415 76.1066 186.658 74.8341C187.173 73.8017 187.321 72.548 187.1 71.0731C186.879 69.5982 186.253 68.3076 185.221 67.2014C185.724 65.9137 185.797 64.4757 185.442 62.8872C185.302 62.2582 185.107 61.7221 184.858 61.279C184.402 60.4663 183.58 59.9254 182.653 59.8281L176.485 59.1805C174.665 58.9893 173.034 60.3104 172.842 62.1312C172.83 62.2512 172.824 62.3719 172.824 62.4927Z" fill="white"/>
<path d="M180.738 76.4381L186.612 74.5866C187.087 73.5989 187.22 72.4002 187.008 70.9871C186.793 69.5494 186.184 68.2927 185.181 67.2129L185.18 67.2567L180.087 67.1567C177.618 67.3711 176.02 68.1893 175.274 69.602C174.073 71.8765 174.941 74.6953 177.213 75.8979C177.883 76.2527 178.63 76.4381 179.388 76.4381H180.738ZM180.825 76.7586L180.459 76.938C177.916 78.1859 176.865 81.2614 178.112 83.8073C178.188 83.9622 178.271 84.1132 178.356 84.2506C179.56 85.9278 181.895 86.3102 183.57 85.1047C183.681 85.0249 183.787 84.9391 183.889 84.8477L186.326 82.652C187.633 81.4742 188.248 79.7089 187.955 77.9728C187.934 77.8472 187.913 77.7335 187.893 77.6318C187.774 77.0289 187.361 76.1225 186.654 74.9213L180.825 76.7586ZM180.211 66.8272L185.179 66.9247C185.632 65.6963 185.691 64.3268 185.353 62.8128C185.216 62.1995 185.027 61.679 184.787 61.2513C184.357 60.4845 183.582 59.9743 182.709 59.8826L176.54 59.2349C174.81 59.0533 173.261 60.3098 173.079 62.0415C173.067 62.1556 173.062 62.2703 173.062 62.385L173.064 62.8312C173.074 65.0339 174.861 66.8142 177.061 66.8142H180.211L180.211 66.8272ZM174.981 69.4469C175.571 68.3298 176.639 67.5641 178.176 67.1461H177.061C174.679 67.1461 172.744 65.2182 172.733 62.8327L172.73 62.3865C172.73 62.2597 172.736 62.133 172.75 62.0069C172.95 60.0929 174.662 58.7041 176.574 58.9048L182.743 59.5525C183.724 59.6555 184.593 60.2282 185.076 61.0888C185.333 61.5466 185.532 62.0972 185.676 62.7404C186.029 64.3201 185.966 65.7591 185.485 67.0539C186.497 68.1675 187.115 69.4634 187.336 70.9379C187.556 72.4062 187.418 73.6666 186.918 74.7159C187.656 75.9652 188.089 76.9127 188.218 77.5675C188.239 77.6724 188.26 77.7891 188.282 77.9176C188.593 79.7657 187.939 81.6449 186.548 82.8987L184.111 85.0944C184 85.1939 183.884 85.2873 183.763 85.3742C181.939 86.6867 179.398 86.2703 178.081 84.4351C177.984 84.2791 177.895 84.1183 177.814 83.9533C176.528 81.3275 177.538 78.1724 180.064 76.77H179.388C178.576 76.77 177.776 76.5713 177.058 76.1913C174.624 74.903 173.694 71.8834 174.981 69.4469ZM177.057 60.1183C177.148 60.117 177.223 60.1902 177.225 60.2819C177.226 60.3735 177.153 60.4488 177.061 60.4501C175.839 60.4674 175.297 61.1983 175.402 62.729C175.508 64.2665 176.052 64.9566 177.048 64.8869C177.14 64.8805 177.219 64.9494 177.225 65.0408C177.232 65.1322 177.163 65.2115 177.072 65.2179C175.859 65.3027 175.188 64.4513 175.071 62.7516C174.955 61.0451 175.627 60.1385 177.057 60.1183ZM178.641 69.5805C178.732 69.5728 178.812 69.6406 178.82 69.7319C178.828 69.8232 178.76 69.9035 178.669 69.9111C177.451 70.0136 176.961 70.7805 177.173 72.3002C177.385 73.8266 177.976 74.477 178.965 74.338C179.056 74.3252 179.14 74.3885 179.153 74.4792C179.165 74.57 179.102 74.6539 179.012 74.6666C177.808 74.8357 177.079 74.0333 176.844 72.3459C176.608 70.6516 177.216 69.7004 178.641 69.5805ZM180.964 79.2568C181.054 79.238 181.142 79.2955 181.16 79.3852C181.179 79.4749 181.122 79.5628 181.032 79.5816C179.836 79.8317 179.443 80.6526 179.838 82.1351C180.235 83.6243 180.901 84.1978 181.866 83.9392C181.955 83.9156 182.045 83.9681 182.069 84.0566C182.093 84.1452 182.04 84.2361 181.952 84.2598C180.778 84.5743 179.957 83.8667 179.518 82.2205C179.078 80.5676 179.565 79.5494 180.964 79.2568Z" fill="#263E4B"/>
<path fill-rule="evenodd" clip-rule="evenodd" d="M37.3881 108.948L42.7536 164.983H45.5161L42.8851 108.408C42.8161 106.924 41.5567 105.776 40.0721 105.845C40.0266 105.847 39.9812 105.85 39.9359 105.855C38.379 106.007 37.239 107.391 37.3881 108.948Z" fill="white"/>
<path d="M37.2209 108.859L42.6008 165.044H45.6875L43.0485 108.296C42.9752 106.72 41.6382 105.502 40.0622 105.575C40.0139 105.577 39.9657 105.581 39.9176 105.586C38.2697 105.746 37.0631 107.211 37.2209 108.859ZM42.902 164.713L37.5509 108.828C37.4105 107.361 38.4839 106.058 39.9498 105.915C39.9923 105.911 40.0349 105.908 40.0776 105.906C41.4707 105.842 42.6526 106.918 42.7174 108.311L45.3402 164.713H42.902Z" fill="#263E4B"/>
<path d="M41.4001 166.601C41.3654 166.685 41.2687 166.726 41.1839 166.691C41.0992 166.657 41.0586 166.56 41.0933 166.475C43.28 161.128 44.5531 157.392 44.9112 155.276C44.9265 155.186 45.012 155.125 45.1023 155.141C45.1925 155.156 45.2533 155.241 45.238 155.332C44.8746 157.479 43.5958 161.232 41.4001 166.601ZM44.7898 147.893C44.8189 147.979 44.7721 148.073 44.6853 148.103C44.5985 148.132 44.5046 148.085 44.4755 147.998C43.5023 145.096 41.536 142.62 38.5714 140.568C38.4962 140.516 38.4774 140.412 38.5295 140.337C38.5816 140.262 38.6848 140.243 38.7601 140.295C41.7812 142.386 43.7928 144.919 44.7898 147.893ZM42.4119 159.645C42.3741 159.729 42.2759 159.766 42.1925 159.728C42.1091 159.69 42.0722 159.592 42.11 159.509C42.4057 158.856 42.6036 158.325 42.7037 157.916C44.0794 152.307 43.2266 148.208 40.791 145.295C40.7323 145.225 40.7416 145.12 40.8119 145.061C40.8821 145.003 40.9866 145.012 41.0454 145.082C43.5505 148.079 44.4258 152.286 43.0256 157.995C42.9199 158.427 42.7153 158.976 42.4119 159.645ZM38.5049 106.208C38.4933 106.118 38.5575 106.035 38.6483 106.023C38.7391 106.011 38.8221 106.076 38.8337 106.166C40.27 117.426 45.6601 123.38 55.027 124.079C55.1183 124.086 55.1868 124.165 55.18 124.257C55.1732 124.348 55.0937 124.416 55.0024 124.41C45.4669 123.698 39.9599 117.615 38.5049 106.208ZM40.9317 106.038C40.923 105.947 40.9899 105.866 41.081 105.857C41.1722 105.848 41.2531 105.915 41.2617 106.006C42.2032 115.921 46.6851 121.09 54.7371 121.682C54.8284 121.689 54.897 121.768 54.8903 121.859C54.8836 121.951 54.8041 122.019 54.7128 122.013C46.487 121.407 41.8875 116.103 40.9317 106.038Z" fill="#263E4B"/>
<path fill-rule="evenodd" clip-rule="evenodd" d="M129.163 18.0863C128.736 18.0863 128.39 17.6901 128.39 17.2013C128.39 16.7126 128.736 16.3164 129.163 16.3164C129.59 16.3164 129.937 16.7126 129.937 17.2013C129.937 17.6901 129.59 18.0863 129.163 18.0863ZM136.014 18.0863C135.587 18.0863 135.24 17.6901 135.24 17.2013C135.24 16.7126 135.587 16.3164 136.014 16.3164C136.441 16.3164 136.787 16.7126 136.787 17.2013C136.787 17.6901 136.441 18.0863 136.014 18.0863ZM127.632 16.4236C127.573 16.4936 127.468 16.5022 127.398 16.443C127.329 16.3838 127.32 16.2791 127.379 16.2091C127.405 16.178 127.453 16.1261 127.519 16.0603C127.629 15.9516 127.752 15.843 127.887 15.7413C128.28 15.4451 128.691 15.2655 129.106 15.2655C129.706 15.2655 130.035 15.4091 130.366 15.7734C130.419 15.831 130.472 15.8938 130.541 15.9798C130.562 16.0051 130.688 16.1629 130.728 16.2116C130.786 16.2826 130.775 16.3872 130.704 16.445C130.633 16.5029 130.529 16.4922 130.471 16.4212C130.43 16.3714 130.304 16.2132 130.284 16.1889C130.218 16.1074 130.169 16.0489 130.121 15.997C129.853 15.702 129.613 15.5974 129.106 15.5974C128.776 15.5974 128.427 15.7496 128.086 16.0065C127.964 16.0984 127.852 16.1972 127.753 16.2959C127.694 16.3545 127.653 16.3995 127.632 16.4236ZM134.708 16.419C134.651 16.491 134.547 16.5035 134.475 16.4468C134.403 16.3902 134.391 16.2858 134.447 16.2138C134.472 16.1826 134.516 16.1306 134.577 16.0648C134.679 15.9558 134.794 15.8469 134.92 15.745C135.287 15.4467 135.672 15.2655 136.063 15.2655C136.627 15.2655 136.937 15.4114 137.247 15.778C137.295 15.8356 137.345 15.8985 137.409 15.9845C137.428 16.0098 137.546 16.1676 137.583 16.2163C137.638 16.2894 137.623 16.3934 137.55 16.4487C137.477 16.504 137.373 16.4896 137.318 16.4165C137.281 16.3667 137.163 16.2085 137.144 16.1842C137.083 16.1027 137.037 16.0443 136.993 15.9924C136.746 15.6998 136.529 15.5974 136.063 15.5974C135.763 15.5974 135.442 15.748 135.128 16.0028C135.015 16.0945 134.911 16.193 134.819 16.2915C134.765 16.35 134.727 16.3949 134.708 16.419ZM133.544 19.469H134.849L133.39 15.7128C133.357 15.6274 133.399 15.5312 133.484 15.498C133.57 15.4648 133.666 15.5071 133.699 15.5925L135.246 19.5748C135.288 19.6836 135.208 19.8009 135.091 19.8009H133.544C133.453 19.8009 133.379 19.7266 133.379 19.635C133.379 19.5433 133.453 19.469 133.544 19.469ZM132.739 21.7724C132.658 21.8157 132.558 21.7853 132.514 21.7045C132.471 21.6237 132.501 21.5231 132.582 21.4799C133.183 21.1579 133.761 21.1579 134.294 21.4846C134.372 21.5325 134.397 21.6346 134.349 21.7128C134.301 21.7909 134.199 21.8155 134.121 21.7676C133.691 21.5044 133.238 21.5044 132.739 21.7724Z" fill="#263E4B"/>
<path fill-rule="evenodd" clip-rule="evenodd" d="M10.8203 118.962L19.6601 146.285L63.3066 140.422V108.453L20.1884 117.086L19.6601 120.842L16.8323 117.758L10.8203 118.962Z" fill="white"/>
<path d="M16.9524 117.545C16.9132 117.502 16.8545 117.483 16.7976 117.494L10.7856 118.698C10.6885 118.718 10.63 118.817 10.6605 118.912L19.5002 146.235C19.5249 146.311 19.6006 146.359 19.68 146.348L63.3265 140.485C63.4087 140.474 63.4701 140.404 63.4701 140.321V108.352C63.4701 108.247 63.3744 108.169 63.2719 108.189L20.1537 116.823C20.0847 116.836 20.032 116.892 20.0221 116.962L19.5427 120.37L16.9524 117.545ZM16.7711 117.838L19.5358 120.853C19.6304 120.957 19.8026 120.903 19.8221 120.764L20.334 117.125L63.1387 108.554V140.176L19.773 146.001L11.0331 118.987L16.7711 117.838Z" fill="#263E4B"/>
<path fill-rule="evenodd" clip-rule="evenodd" d="M1.09375 195.02H15.7899C21.5786 179.937 26.8933 170.521 31.7342 166.77C32.0201 166.548 30.3149 164.092 26.6186 159.4C29.0146 161.297 30.672 162.514 31.591 163.051C32.0238 163.304 32.0606 159.69 31.7015 152.21L35.6583 164.201C37.1646 163.443 38.3135 162.913 39.1048 162.608C50.2282 158.331 59.3627 169.135 66.5082 195.02H215.901" fill="white"/>
<path d="M31.5091 163.141C31.6668 163.233 31.809 163.148 31.8866 162.982C31.9369 162.874 31.9757 162.711 32.0072 162.486C32.0671 162.057 32.1014 161.389 32.1106 160.479C32.127 158.869 32.0651 156.496 31.9248 153.358L35.5025 164.2C35.5343 164.296 35.644 164.341 35.7344 164.296C37.2363 163.541 38.3808 163.012 39.166 162.71C50.1586 158.483 59.2277 169.21 66.3501 195.011C66.3699 195.083 66.4353 195.133 66.5099 195.133H215.902C215.994 195.133 216.068 195.059 216.068 194.967C216.068 194.875 215.994 194.801 215.902 194.801H66.636C59.4723 168.92 50.2837 158.08 39.047 162.401C38.28 162.696 37.184 163.2 35.7572 163.914L31.8606 152.105C31.8001 151.922 31.5284 151.972 31.5376 152.165C31.717 155.902 31.7975 158.673 31.7792 160.476C31.77 161.373 31.7364 162.028 31.6789 162.44C31.6553 162.609 31.6279 162.733 31.5995 162.809C30.6747 162.256 29.0474 161.057 26.7232 159.218C26.5691 159.096 26.3685 159.296 26.4901 159.45C28.3364 161.793 29.685 163.578 30.5353 164.803C30.9581 165.412 31.2568 165.882 31.4305 166.209C31.514 166.367 31.5671 166.489 31.5898 166.573C31.5942 166.589 31.5972 166.603 31.5989 166.614C26.7477 170.398 21.4469 179.79 15.6777 194.801H1.09543C1.00389 194.801 0.929688 194.875 0.929688 194.967C0.929688 195.059 1.00389 195.133 1.09543 195.133H15.7916C15.8602 195.133 15.9217 195.09 15.9463 195.026C21.7246 179.971 27.0279 170.575 31.8374 166.848C32.1091 166.638 31.7763 166.01 30.8076 164.614C30.0889 163.579 29.0189 162.149 27.5971 160.325C29.4245 161.746 30.7273 162.684 31.5091 163.141Z" fill="#263E4B"/>
<path d="M130.871 0H124.594C121.773 0 119.484 2.27475 119.456 5.09151L115.729 10.4696C115.653 10.5796 115.731 10.7301 115.865 10.7301H141.059C141.205 10.7301 141.279 10.5543 141.178 10.449L135.788 4.85511C135.752 2.16754 133.564 0 130.871 0ZM119.757 5.23839C119.777 5.21061 119.787 5.17761 119.787 5.14381C119.787 2.48624 121.939 0.331859 124.594 0.331859H130.871C133.404 0.331859 135.457 2.38719 135.457 4.92257C135.457 4.96555 135.473 5.00684 135.503 5.03777L140.668 10.3982H116.182L119.757 5.23839Z" fill="#263E4B"/>
<path fill-rule="evenodd" clip-rule="evenodd" d="M135.555 5.03319L119.55 5.25443L118.445 6.91372H137.34L135.555 5.03319Z" fill="#BAD9EA"/>
<path d="M135.66 4.75664L119.655 4.97789C119.601 4.97865 119.55 5.00628 119.52 5.05176L118.415 6.71106C118.341 6.82133 118.42 6.96903 118.553 6.96903H137.448C137.593 6.96903 137.668 6.79445 137.568 6.68877L135.782 4.80824C135.75 4.77471 135.706 4.75601 135.66 4.75664ZM137.062 6.63717H118.862L119.747 5.30851L135.592 5.08948L137.062 6.63717Z" fill="#263E4B"/>
<path fill-rule="evenodd" clip-rule="evenodd" d="M90.7105 190.653L88.832 199.724H96.1249H124.412C122.781 196.277 120.866 193.881 118.666 192.533C116.467 191.186 112.452 190.559 106.622 190.653L109.606 175.166L91.705 175.277L91.484 186.892L90.7105 190.653Z" fill="white"/>
<path fill-rule="evenodd" clip-rule="evenodd" d="M138.775 189.325V199.834L143.195 199.724H171.482C169.851 196.277 167.935 193.881 165.736 192.533C163.537 191.186 159.522 190.559 153.692 190.653L156.454 175.414L137.117 175.277L138.554 186.892L138.775 189.325Z" fill="white"/>
<path fill-rule="evenodd" clip-rule="evenodd" d="M91.4834 187.002C93.1752 187.276 94.5012 188.346 95.4613 190.21C96.4214 192.075 96.937 194.582 97.0083 197.732L89.2734 197.622" fill="#BAD9EA"/>
<path fill-rule="evenodd" clip-rule="evenodd" d="M138.773 187.002C141.791 187.719 143.78 189.009 144.74 190.874C145.7 192.739 146.142 195.025 146.066 197.732L138.773 197.622V187.002Z" fill="#BAD9EA"/>
<path d="M96.9772 175.189L98.2076 166.704H95.5689V166.372H98.2556L98.9133 161.836H96.5634V161.505H109.381V161.836H106.812L105.971 166.372H108.387V166.704H105.91L104.346 175.143L109.803 175.11L107.359 187.798L108.203 185.483C108.238 185.386 108.283 185.292 108.335 185.203C108.814 184.386 109.865 184.113 110.681 184.592C110.819 184.672 110.943 184.774 111.048 184.894C111.603 185.52 111.545 186.476 110.919 187.031L106.99 190.51C107.73 190.326 109.545 189.859 112.212 189.165C112.301 189.142 112.391 189.195 112.414 189.284C112.437 189.372 112.384 189.463 112.296 189.486C110.353 189.992 108.952 190.354 108.027 190.589C113.129 190.613 116.7 191.247 118.749 192.503C120.979 193.869 122.915 196.29 124.559 199.763L124.671 200H88.625L90.5447 190.73L91.3151 186.984L91.5389 175.223L96.9772 175.189ZM97.3124 175.187L100.518 175.167L101.813 166.704H98.5425L97.3124 175.187ZM100.854 175.165L104.009 175.146L105.573 166.704H102.149L100.854 175.165ZM106.759 190.927C106.745 190.93 106.73 190.931 106.715 190.93L102.977 191.04C102.886 191.042 102.809 190.97 102.807 190.879C102.804 190.787 102.876 190.711 102.967 190.708L106.306 190.61L102.264 187.031C101.638 186.476 101.58 185.52 102.135 184.894C102.24 184.774 102.364 184.672 102.502 184.592C103.318 184.113 104.369 184.386 104.848 185.203C104.9 185.292 104.944 185.386 104.98 185.483L106.591 189.902L106.643 189.76L109.401 175.444L91.8642 175.552L91.6487 186.878C95.0895 187.901 97.062 191.442 97.1687 197.456H122.944C121.639 195.326 120.182 193.769 118.576 192.785C116.428 191.469 112.486 190.846 106.759 190.927ZM106.964 189.849L106.908 190.14L110.699 186.783C111.188 186.35 111.233 185.602 110.8 185.113C110.718 185.02 110.621 184.941 110.513 184.878C109.855 184.491 109.007 184.712 108.621 185.37C108.579 185.442 108.543 185.518 108.514 185.597L106.964 189.849ZM123.143 197.788H89.4217L89.0322 199.669H124.146C123.822 199 123.488 198.373 123.143 197.788ZM89.4903 197.456H96.8371C96.7322 191.606 94.8469 188.206 91.6067 187.212L90.8693 190.797L89.4903 197.456ZM104.668 185.597C104.64 185.518 104.604 185.442 104.562 185.37C104.175 184.712 103.328 184.491 102.669 184.878C102.562 184.941 102.465 185.02 102.383 185.113C101.95 185.602 101.995 186.35 102.484 186.783L106.349 190.206L104.668 185.597ZM106.475 161.836H102.894L102.199 166.372H105.634L106.475 161.836ZM102.558 161.836H99.2483L98.5906 166.372H101.864L102.558 161.836Z" fill="#263E4B"/>
<path fill-rule="evenodd" clip-rule="evenodd" d="M90.0448 57.135H86.3984L90.3763 50.8297" fill="#BAD9EA"/>
<path d="M141.003 175.133L139.781 166.704H137.671V166.372H139.733L139.075 161.836H137.008V161.505H150.379V161.836H147.523L147.98 166.372H150.489V166.704H148.013L148.867 175.178L156.652 175.223L154.132 189.837L155.72 185.483C155.755 185.386 155.799 185.292 155.852 185.203C156.331 184.386 157.381 184.113 158.198 184.592C158.336 184.672 158.459 184.774 158.565 184.894C159.119 185.52 159.061 186.476 158.435 187.031L154.683 190.354C155.618 190.116 157.189 189.711 159.287 189.165C159.376 189.142 159.466 189.195 159.489 189.284C159.512 189.372 159.459 189.463 159.371 189.486C157.429 189.991 156.028 190.354 155.103 190.589C160.263 190.604 163.871 191.238 165.935 192.503C168.165 193.869 170.1 196.29 171.744 199.763L171.856 200H138.612L138.611 199.836L138.502 187.024L136.93 175.11L141.003 175.133ZM141.338 175.135L144.667 175.154L143.918 166.704H140.116L141.338 175.135ZM145 175.156L148.533 175.176L147.68 166.704H144.251L145 175.156ZM138.81 186.84C143.611 187.807 146.089 191.363 146.232 197.456H170.129C168.824 195.326 167.368 193.769 165.762 192.785C163.621 191.474 159.7 190.85 154.007 190.926C153.985 190.931 153.962 190.931 153.941 190.927C153.901 190.928 153.862 190.928 153.823 190.929C153.812 190.93 153.801 190.931 153.79 190.93L150.052 191.04C149.96 191.042 149.884 190.97 149.881 190.879C149.879 190.787 149.951 190.711 150.042 190.708L153.381 190.61L149.339 187.031C148.713 186.476 148.655 185.52 149.209 184.894C149.315 184.774 149.439 184.672 149.576 184.592C150.393 184.113 151.443 184.386 151.923 185.203C151.975 185.292 152.019 185.386 152.055 185.483L153.746 190.122L156.259 175.552L137.308 175.444L138.81 186.84ZM138.833 187.183L138.922 197.456H145.9C145.76 191.55 143.408 188.142 138.833 187.183ZM170.328 197.788H138.924L138.941 199.669H171.331C171.008 199 170.673 198.373 170.328 197.788ZM151.743 185.597C151.715 185.518 151.679 185.442 151.637 185.37C151.25 184.712 150.403 184.491 149.744 184.878C149.637 184.941 149.54 185.02 149.458 185.113C149.025 185.602 149.07 186.35 149.559 186.783L153.424 190.206L151.743 185.597ZM156.031 185.597L154.35 190.206L158.216 186.783C158.705 186.35 158.75 185.602 158.317 185.113C158.234 185.02 158.138 184.941 158.03 184.878C157.372 184.491 156.524 184.712 156.138 185.37C156.095 185.442 156.06 185.518 156.031 185.597ZM147.19 161.836H143.819L144.221 166.372H147.647L147.19 161.836ZM143.487 161.836H139.41L140.068 166.372H143.888L143.487 161.836Z" fill="#263E4B"/>
<path d="M33.1756 130.795L33.5018 132.854L31.6072 133.154L31.8518 134.698L29.4158 135.084L29.1712 133.54L22.4859 134.599L22.1598 132.539L27.9138 125.601L30.3497 125.215L31.281 131.095L33.1756 130.795ZM24.7852 132.124L28.8451 131.48L28.3 128.039L24.7852 132.124ZM39.9524 133.554C36.1902 134.15 34.1292 132.699 33.6293 129.542C33.1314 126.399 34.6453 124.396 38.4075 123.8C42.1561 123.206 44.2306 124.655 44.7263 127.785C45.2241 130.928 43.7011 132.961 39.9524 133.554ZM39.6284 131.509C41.7666 131.17 42.5715 129.945 42.2904 128.171C42.0114 126.409 40.8697 125.507 38.7315 125.846C36.5933 126.184 35.7841 127.382 36.0652 129.156C36.3484 130.945 37.4902 131.847 39.6284 131.509ZM56.723 127.065L57.0492 129.124L55.1545 129.424L55.3992 130.969L52.9632 131.355L52.7186 129.81L46.0333 130.869L45.7071 128.81L51.4612 121.871L53.8971 121.485L54.8284 127.365L56.723 127.065ZM48.3325 128.394L52.3924 127.751L51.8474 124.31L48.3325 128.394Z" fill="#BAD9EA"/>
<path d="M33.4171 130.496L33.7951 132.883L31.9005 133.183L32.1451 134.727L29.3818 135.165L29.1371 133.621L22.4518 134.68L22.088 132.383L27.9298 125.338L30.5912 124.917L31.5225 130.796L33.4171 130.496ZM31.2469 131.176L30.3156 125.296L28.1052 125.646L22.4389 132.479L22.7274 134.3L29.4127 133.241L29.6573 134.786L31.7658 134.452L31.5212 132.907L33.4158 132.607L33.1415 130.876L31.2469 131.176ZM24.4685 132.249L28.5115 127.551L29.1384 131.51L24.4685 132.249ZM28.7591 131.234L28.296 128.31L25.3093 131.78L28.7591 131.234ZM40.082 133.609C36.2998 134.208 34.0937 132.771 33.5693 129.46C33.0472 126.163 34.7015 124.127 38.4852 123.527C42.2548 122.93 44.4737 124.367 44.9937 127.65C45.5161 130.948 43.8502 133.012 40.082 133.609ZM40.0302 133.282C43.6246 132.713 45.1588 130.812 44.6663 127.702C44.1763 124.608 42.1332 123.285 38.5371 123.855C34.9268 124.427 33.4046 126.301 33.8967 129.408C34.3913 132.53 36.4217 133.853 40.0302 133.282ZM39.758 131.564C37.5973 131.906 36.3131 131.017 36.0052 129.074C35.6997 127.145 36.6475 125.915 38.8092 125.573C40.9658 125.232 42.2537 126.116 42.5578 128.036C42.8643 129.971 41.9137 131.222 39.758 131.564ZM39.7062 131.236C41.6841 130.923 42.5077 129.839 42.2304 128.088C41.9555 126.352 40.8407 125.587 38.8611 125.901C36.8762 126.215 36.0565 127.278 36.3326 129.022C36.6113 130.781 37.723 131.55 39.7062 131.236ZM56.9645 126.767L57.3425 129.153L55.4479 129.453L55.6925 130.998L52.9291 131.436L52.6845 129.891L45.9992 130.95L45.6354 128.653L51.4772 121.609L54.1386 121.187L55.0699 127.067L56.9645 126.767ZM54.7943 127.446L53.863 121.566L51.6525 121.916L45.9863 128.749L46.2748 130.571L52.9601 129.512L53.2047 131.056L55.3132 130.722L55.0686 129.178L56.9632 128.878L56.6889 127.146L54.7943 127.446ZM48.0158 128.52L52.0588 123.822L52.6858 127.78L48.0158 128.52ZM52.3065 127.504L51.8434 124.58L48.8566 128.051L52.3065 127.504Z" fill="#263E4B"/>
<path d="M90.3341 50.6518C90.3541 50.5764 90.3712 50.5063 90.3854 50.4415L90.5665 46.6161C90.8669 40.2746 96.0901 35.2876 102.432 35.2876H114.908V35.6195H102.432C96.2671 35.6195 91.1896 40.4673 90.8977 46.6318L90.845 47.744C91.4309 45.4945 92.5607 43.4821 94.2361 41.7539C96.7617 39.149 99.8892 40.4473 103.55 45.5336C103.604 45.6079 103.587 45.7116 103.513 45.7652C103.438 45.8188 103.335 45.8019 103.281 45.7276C99.7233 40.7844 96.8104 39.5752 94.474 41.9851C92.2752 44.2531 91.0408 47.0189 90.7633 50.1805C90.7556 50.2684 90.7395 50.3696 90.7152 50.4846L90.2112 61.1252L89.8801 61.1095L90.0657 57.1903H86.5098C86.3792 57.1903 86.2999 57.0463 86.3696 56.9358L90.3341 50.6518ZM90.0815 56.8585L90.3469 51.2529L86.8105 56.8585H90.0815Z" fill="#263E4B"/>
<path d="M139.25 65.5037C139.159 65.5002 139.088 65.4231 139.091 65.3315C139.095 65.24 139.172 65.1685 139.263 65.172C140.484 65.2187 141.064 64.5172 141.039 62.9832C141.014 61.4422 140.507 60.7246 139.508 60.7421C139.417 60.7437 139.341 60.6707 139.339 60.579C139.338 60.4874 139.411 60.4118 139.502 60.4102C140.717 60.389 141.343 61.2744 141.371 62.9778C141.398 64.6882 140.679 65.5583 139.25 65.5037ZM138.897 77.1756C138.806 77.1674 138.739 77.0867 138.747 76.9954C138.755 76.9041 138.836 76.8369 138.927 76.8451C140.144 76.9556 140.759 76.2854 140.815 74.7522C140.871 73.212 140.402 72.4689 139.403 72.434C139.312 72.4308 139.24 72.354 139.244 72.2624C139.247 72.1708 139.323 72.0992 139.415 72.1024C140.629 72.1448 141.208 73.0617 141.146 74.7642C141.084 76.4737 140.321 77.3049 138.897 77.1756ZM131.652 90.0911C131.568 90.0544 131.53 89.9566 131.566 89.8726C131.603 89.7887 131.701 89.7504 131.785 89.7872C132.911 90.2809 133.662 89.9571 134.117 88.7784C134.574 87.5919 134.334 86.8598 133.394 86.4988C133.308 86.466 133.266 86.3701 133.299 86.2845C133.332 86.199 133.427 86.1562 133.513 86.189C134.64 86.6216 134.945 87.5523 134.426 88.8978C133.904 90.2512 132.953 90.6614 131.652 90.0911ZM119.718 45.9197L120.038 46.0052C119.434 48.2753 118.172 49.6149 116.264 49.9968L116.199 49.6714C117.975 49.3159 119.144 48.0744 119.718 45.9197Z" fill="#263E4B"/>
<path d="M101.158 50.3194L101.6 51.9786C101.624 52.0672 101.714 52.1198 101.803 52.0962C101.891 52.0726 101.944 51.9817 101.92 51.8931L101.478 50.2338C101.455 50.1453 101.364 50.0927 101.275 50.1163C101.187 50.1399 101.134 50.2308 101.158 50.3194Z" fill="#263E4B"/>
<path d="M101.281 50.4383L102.717 50.7701C102.807 50.7907 102.896 50.7351 102.916 50.6458C102.937 50.5565 102.881 50.4674 102.792 50.4468L101.355 50.1149C101.266 50.0943 101.177 50.15 101.157 50.2393C101.136 50.3286 101.192 50.4177 101.281 50.4383Z" fill="#263E4B"/>
<path d="M163.654 51.4887C162.536 50.1395 160.594 49.9969 158.992 51.0517C158.368 51.4626 157.913 52.048 157.699 52.7168C157.16 54.4022 159.277 58.7092 164.053 65.746C164.105 65.8218 164.208 65.8415 164.283 65.79C164.359 65.7385 164.379 65.6353 164.327 65.5595C159.629 58.6372 157.524 54.3539 158.015 52.818C158.205 52.2227 158.612 51.6989 159.174 51.329C160.643 50.3618 162.396 50.4905 163.399 51.7005C163.457 51.7711 163.562 51.7809 163.632 51.7224C163.702 51.6639 163.712 51.5593 163.654 51.4887Z" fill="#263E4B"/>
</svg>
