<svg width="24" height="24" viewBox="0 0 24 24" fill="none" xmlns="http://www.w3.org/2000/svg">
<path d="M15.2 6.70001L16.6 2.45001L21.55 7.40001L17.3 8.80001L15.2 6.70001ZM6.70001 15.2L2.45001 16.6L7.40001 21.55L8.80001 17.3L6.70001 15.2Z" fill="#388E3C"/>
<path d="M15.9 7.4L18 3.85L20.5 3.5L20.15 6L16.6 8.1L15.9 7.4ZM7.4 15.9L3.85 18L3.5 20.5L5.95 20.15L8.05 16.6L7.4 15.9Z" fill="#1B5E20"/>
<path d="M16.6 7.39998C19.15 9.94998 18.8 13.7 16.25 16.25C13.7 18.8 9.94998 19.15 7.39998 16.6C4.84998 14.05 5.19998 10.3 7.74998 7.74998C10.3 5.19998 14.05 4.84998 16.6 7.39998Z" fill="#4CAF50"/>
<path d="M16 12C16 14.2 14.2 16 12 16C9.8 16 8 14.2 8 12C8 9.8 9.8 8 12 8C14.2 8 16 9.8 16 12Z" fill="#2E7D32"/>
<path d="M9.13751 13.026L14.3753 10.0993L14.8631 10.9723L9.6253 13.899L9.13751 13.026Z" fill="white"/>
<path d="M9.15186 10.9352L9.65125 10.0688L14.8495 13.0652L14.3501 13.9316L9.15186 10.9352Z" fill="white"/>
<path d="M11.5 9H12.5V15H11.5V9Z" fill="white"/>
</svg>
