<svg width="24" height="24" viewBox="0 0 24 24" fill="none" xmlns="http://www.w3.org/2000/svg">
<path d="M22.5 17.0985V19.933C22.5 20.2505 22.2445 20.5 21.933 20.5H4C2.8955 20.5 2 19.6045 2 18.5V9.63798C2 9.25998 2.213 8.91448 2.551 8.74448L9.873 5.06398C10.147 4.92598 10.4695 4.92198 10.7475 5.05248L13.7475 6.46198L5.5 10.7245V17.0985H22.5Z" fill="#FFB74D"/>
<path d="M21.933 18H5.567C5.254 18 5 17.746 5 17.433V11H22.5V17.433C22.5 17.746 22.246 18 21.933 18Z" fill="#FFECB3"/>
<path d="M22.1765 10.4225L13.747 6.46198C13.417 6.30848 13.034 6.32298 12.716 6.49998L5.29999 10.4335C5.11349 10.5355 4.97499 10.7975 4.99999 11C5.03149 11.2555 5.30649 11.5 5.61549 11.4955L15 11.4985C15.276 11.4985 15.5 11.7225 15.5 11.9985V12.75C15.5 13.164 15.836 13.5 16.25 13.5C16.664 13.5 17 13.164 17 12.75V11.999C17 11.723 17.224 11.499 17.5 11.499H18C18.276 11.499 18.5 11.723 18.5 11.999V14.25C18.5 14.664 18.836 15 19.25 15C19.664 15 20 14.664 20 14.25V12C20 11.724 20.224 11.5 20.5 11.5H21.933C22.1995 11.5 22.469 11.261 22.5 11C22.5265 10.7805 22.375 10.5185 22.1765 10.4225Z" fill="#C62828"/>
<path d="M13.8895 5.2545L12.2905 3.65C12.0905 3.45 11.7625 3.45 11.5625 3.65L9.96297 5.2545C8.42847 6.6045 9.08647 9.307 11.2035 9.3295C11.561 9.3335 12.6335 9.3295 12.6335 9.3295C13.3255 9.3295 13.951 9.0065 14.33 8.4785C14.5755 8.176 14.7 7.7985 14.735 7.402C14.802 6.7975 14.6585 6.018 13.8895 5.2545Z" fill="#F44336"/>
<path d="M12.007 6.51698C11.8555 6.51698 11.7325 6.39448 11.7325 6.24248V5.96798C11.7325 5.81648 11.855 5.69348 12.007 5.69348C12.159 5.69348 12.2815 5.81598 12.2815 5.96798V6.24248C12.281 6.39448 12.1585 6.51698 12.007 6.51698Z" fill="#C62828"/>
<path d="M13.104 6.51698C12.9525 6.51698 12.8295 6.39448 12.8295 6.24248V5.96798C12.8295 5.81648 12.952 5.69348 13.104 5.69348C13.256 5.69348 13.3785 5.81598 13.3785 5.96798V6.24248C13.378 6.39448 13.2555 6.51698 13.104 6.51698Z" fill="#C62828"/>
<path d="M13.565 7.61403C13.4135 7.61403 13.2905 7.49153 13.2905 7.33953V7.06503C13.2905 6.91353 13.413 6.79053 13.565 6.79053C13.7165 6.79053 13.8395 6.91303 13.8395 7.06503V7.33953C13.839 7.49153 13.7165 7.61403 13.565 7.61403Z" fill="#C62828"/>
<path d="M12.4675 7.61403C12.316 7.61403 12.193 7.49153 12.193 7.33953V7.06503C12.193 6.91353 12.3155 6.79053 12.4675 6.79053C12.619 6.79053 12.742 6.91303 12.742 7.06503V7.33953C12.742 7.49153 12.6195 7.61403 12.4675 7.61403Z" fill="#C62828"/>
<path d="M11.3705 7.61403C11.219 7.61403 11.096 7.49153 11.096 7.33953V7.06503C11.096 6.91353 11.2185 6.79053 11.3705 6.79053C11.522 6.79053 11.645 6.91303 11.645 7.06503V7.33953C11.645 7.49153 11.522 7.61403 11.3705 7.61403Z" fill="#C62828"/>
<path d="M12.007 8.71101C11.8555 8.71101 11.7325 8.58851 11.7325 8.43651V8.16201C11.7325 8.01051 11.855 7.88751 12.007 7.88751C12.159 7.88751 12.2815 8.01001 12.2815 8.16201V8.43651C12.281 8.58851 12.1585 8.71101 12.007 8.71101Z" fill="#C62828"/>
<path d="M13.104 8.71101C12.9525 8.71101 12.8295 8.58851 12.8295 8.43651V8.16201C12.8295 8.01051 12.952 7.88751 13.104 7.88751C13.256 7.88751 13.3785 8.01001 13.3785 8.16201V8.43651C13.378 8.58851 13.2555 8.71101 13.104 8.71101Z" fill="#C62828"/>
</svg>
