<svg width="24" height="24" viewBox="0 0 24 24" fill="none" xmlns="http://www.w3.org/2000/svg">
<path d="M16.0654 6H1.5V22.5H14.25V12.75H16.5V12H17.4514C17.7109 11.5519 18.1957 11.25 18.75 11.25C19.023 11.25 19.2791 11.3239 19.5 11.4521V8.25C17.9659 8.25 16.6455 7.32262 16.0654 6Z" fill="#FAB400"/>
<path d="M3 6H1.5V22.5H3V6Z" fill="#DC9600"/>
<path d="M9.00225 6L9 11.25L9.75 10.5L10.5 11.25L11.25 10.5L12 11.25L11.9977 6H9.00225Z" fill="#FA6450"/>
<path d="M6.75 18.75H3V19.5H6.75V18.75Z" fill="#BE7800"/>
<path d="M6.75 20.25H3V21H6.75V20.25Z" fill="#BE7800"/>
<path d="M22.5 13.5H15V22.5H22.5V13.5Z" fill="#F0F0F0"/>
<path d="M15.75 13.5H15V22.5H15.75V13.5Z" fill="#D2D2D2"/>
<path d="M19.5 12.75C19.5 12.3356 19.1644 12 18.75 12C18.3356 12 18 12.3356 18 12.75H17.25V13.5H20.25V12.75H19.5Z" fill="#505050"/>
<path d="M21 15H18V15.75H21V15Z" fill="#D2D2D2"/>
<path d="M21 16.5H18V17.25H21V16.5Z" fill="#D2D2D2"/>
<path d="M21 18H18V18.75H21V18Z" fill="#D2D2D2"/>
<path d="M21 19.5H18V20.25H21V19.5Z" fill="#D2D2D2"/>
<path d="M16.5 15.75H17.25V15H16.5V15.75Z" fill="#FA6450"/>
<path d="M16.5 17.25H17.25V16.5H16.5V17.25Z" fill="#FA6450"/>
<path d="M16.5 18.75H17.25V18H16.5V18.75Z" fill="#FA6450"/>
<path d="M16.5 20.25H17.25V19.5H16.5V20.25Z" fill="#FA6450"/>
<path d="M19.5 7.5C21.1569 7.5 22.5 6.15685 22.5 4.5C22.5 2.84315 21.1569 1.5 19.5 1.5C17.8431 1.5 16.5 2.84315 16.5 4.5C16.5 6.15685 17.8431 7.5 19.5 7.5Z" fill="#FA6450"/>
<path d="M17.2436 4.5C17.2436 2.96925 18.3908 1.70887 19.872 1.5255C19.7498 1.51012 19.626 1.5 19.5 1.5C17.8432 1.5 16.5 2.84325 16.5 4.5C16.5 6.15675 17.8432 7.5 19.5 7.5C19.626 7.5 19.7498 7.48987 19.8716 7.4745C18.3908 7.29112 17.2436 6.03075 17.2436 4.5Z" fill="#DC4632"/>
<path d="M20.826 5.29539L20.0303 4.50001L20.826 3.70464L20.2954 3.17401L19.5 3.96976L18.7046 3.17401L18.174 3.70464L18.9698 4.50001L18.174 5.29539L18.7046 5.82601L19.5 5.03026L20.2954 5.82601L20.826 5.29539Z" fill="#F0F0F0"/>
</svg>
