<svg width="24" height="24" viewBox="0 0 24 24" fill="none" xmlns="http://www.w3.org/2000/svg">
<path d="M20.0305 3.96951C22.4565 6.39601 20.085 11.2145 15.65 15.65C11.215 20.0835 6.39601 22.4555 3.97001 20.03C1.54351 17.6035 3.91501 12.785 8.35001 8.34951C12.7845 3.91551 17.604 1.54351 20.0305 3.96951Z" fill="#FFB300"/>
<path d="M9.95297 14.4685C10.1055 16.5595 9.78047 17.753 9.35547 18.435C8.44797 19.2505 8.01947 19.3425 8.01947 19.3425C8.01947 19.3425 7.87597 13.6595 8.03147 11.5C8.04197 11.354 8.72947 10.427 8.72947 10.427C8.72947 10.427 9.79547 12.3085 9.95297 14.4685ZM13.953 11.1245C14.1055 13.2155 13.78 14.409 13.3555 15.091C12.448 15.9065 12.0195 15.9985 12.0195 15.9985C12.0195 15.9985 11.876 10.316 12.031 8.15601C12.0415 8.01001 12.729 7.08301 12.729 7.08301C12.729 7.08301 13.796 8.96501 13.953 11.1245ZM17.964 7.97851C18.1165 10.0695 17.791 11.263 17.3665 11.945C16.459 12.7605 16.0305 12.8525 16.0305 12.8525C16.0305 12.8525 15.887 7.17001 16.042 5.01001C16.0525 4.86401 16.74 3.93701 16.74 3.93701C16.74 3.93701 17.806 5.81901 17.964 7.97851Z" fill="#FFA000"/>
<path d="M8.99999 15.4215C8.99999 17.587 8.01949 19.3425 8.01949 19.3425C8.01949 19.3425 7.03949 17.587 7.03949 15.4215C7.03949 13.256 8.01949 11.5 8.01949 11.5C8.01949 11.5 8.99999 13.256 8.99999 15.4215ZM13.007 12.0785C13.007 14.2445 12.027 16 12.027 16C12.027 16 11.047 14.2445 11.0465 12.0785C11.0465 9.9135 12.027 8.1575 12.027 8.1575C12.027 8.1575 13.007 9.9135 13.007 12.0785ZM17 8.921C17 11.087 16.0195 12.8425 16.0195 12.8425C16.0195 12.8425 15.0395 11.087 15.039 8.921C15.039 6.756 16.0195 5 16.0195 5C16.0195 5 17 6.756 17 8.921Z" fill="#FFE082"/>
</svg>
