<svg width="24" height="24" viewBox="0 0 24 24" fill="none" xmlns="http://www.w3.org/2000/svg">
<path d="M21.2789 9.52545C22.3233 13.664 19.6453 18.0286 15.1476 19.3945C14.5068 19.589 13.9204 19.7344 13.3411 19.8131C13.4789 19.5106 13.5974 19.1997 13.6959 18.8822C13.8597 18.3671 13.9657 17.8354 14.0118 17.2969H14.0137C16.7423 17.4562 20.3615 14.048 19.6003 10.1784L19.5989 10.1723C19.7226 10.1414 19.8478 10.1072 19.9739 10.0687C20.4266 9.93357 20.864 9.75148 21.2789 9.52545Z" fill="#FFDE8D"/>
<path d="M11.6119 21.6211C13.0509 21.788 14.3152 21.5555 15.8152 21.0994C21.2255 19.4564 24.3848 14.1037 22.8713 9.14343C22.763 8.78765 22.5877 8.45718 22.4381 8.12531L21.2789 9.52546C22.3233 13.6641 19.6453 18.0286 15.1477 19.3945C14.5069 19.5891 13.9205 19.7344 13.3411 19.8131" fill="#F5CB52"/>
<path d="M19.6003 10.1784L19.5989 10.1724L16.8427 9.82501C18.2034 15.2236 13.6327 15.3352 13.2511 15.3352L14.0119 17.2969H14.0138C16.7423 17.4563 20.3616 14.048 19.6003 10.1784Z" fill="#F5CB52"/>
<path d="M2.51672 6.5953C2.50896 5.99865 2.54925 5.40235 2.63719 4.81217L1.45125 2.70514C0.890625 3.9867 0.75 5.21811 0.75 6.73123C0.75 12.1805 4.81781 16.598 9.83578 16.598C10.1958 16.598 10.5511 16.529 10.9003 16.485L9.93047 15.0225C5.80453 14.8214 2.51672 11.1253 2.51672 6.5953Z" fill="#F5CB52"/>
<path d="M9.79783 13.2914L9.80392 13.2919L10.9003 10.8488C5.46986 10.5825 6.69752 6.31266 6.7833 6.03375H6.78283L4.77751 6.14016C3.86345 8.61094 6.00142 12.9052 9.79783 13.2914Z" fill="#F5CB52"/>
<path d="M9.79784 13.2914L9.80394 13.2919C9.79737 13.4147 9.79409 13.5397 9.79409 13.6669C9.79175 14.1223 9.83747 14.5767 9.9305 15.0225C5.80456 14.8214 2.51675 11.1253 2.51675 6.59532C2.50899 5.99867 2.54928 5.40237 2.63722 4.81219C2.87861 5.02446 3.13318 5.22126 3.3994 5.40141C3.83054 5.69707 4.29265 5.94478 4.77753 6.14016C3.86347 8.61094 6.00144 12.9052 9.79784 13.2914Z" fill="#FFDE8D"/>
<path d="M10.8844 10.7379C10.4964 10.7379 9.88061 11.6328 9.78217 13.2508C9.77364 13.386 9.76937 13.5259 9.76937 13.6669C9.76675 14.171 9.82576 14.6735 9.94511 15.1633C10.1825 16.1039 10.5973 16.5959 10.8844 16.5959C11.3391 16.5959 12 15.4549 12 13.6669C12 11.8789 11.3391 10.7379 10.8844 10.7379Z" fill="#BC9431"/>
<path d="M22.4381 8.12531C22.5642 8.53875 22.0875 9.0764 21.2789 9.52547C20.864 9.7515 20.4266 9.93358 19.9739 10.0687C19.8478 10.1072 19.7227 10.1414 19.5989 10.1723C18.2081 10.5169 17.0119 10.3795 16.8427 9.825C16.6584 9.22078 17.7614 8.35078 19.3069 7.88156C20.8524 7.41234 22.2539 7.52109 22.4381 8.12531Z" fill="#BC9431"/>
<path d="M13.4297 15.3694C13.8825 15.5405 14.0897 16.2961 14.0118 17.2969C13.9657 17.8354 13.8597 18.3671 13.6959 18.8822C13.5974 19.1997 13.4789 19.5106 13.3411 19.8131C12.8301 20.9287 12.1481 21.6614 11.6118 21.6211C11.5696 21.6179 11.5279 21.6097 11.4876 21.5967C10.8047 21.3764 10.687 19.8042 11.2218 18.0839C11.7108 16.5112 12.5747 15.3351 13.2412 15.3351H13.2511C13.3122 15.3359 13.3726 15.3475 13.4297 15.3694Z" fill="#BC9431"/>
<path d="M1.6875 7.66873C1.6875 6.32342 1.79948 5.20081 2.21812 4.06765L1.45125 2.70514C0.890625 3.9867 0.75 5.21811 0.75 6.73123C0.75 9.85133 2.08397 12.6328 4.16597 14.4407C2.62969 12.6736 1.6875 10.2908 1.6875 7.66873Z" fill="#CEA645"/>
<path d="M4.77749 6.14018C4.29261 5.9448 3.8305 5.69708 3.39937 5.40143C3.13315 5.22128 2.87858 5.02448 2.63718 4.81221C1.74468 4.02518 1.25765 3.18706 1.45125 2.70518C1.46575 2.66899 1.48431 2.63455 1.50656 2.60253C1.90265 2.0344 3.39328 2.36628 4.83421 3.34503C6.18703 4.26377 7.00781 5.42534 6.78281 6.03377C6.7688 6.07273 6.7499 6.10974 6.72656 6.14393C6.46453 6.53159 5.69437 6.50252 4.77749 6.14018Z" fill="#BC9431"/>
<path d="M2.38875 3.64268C2.40325 3.60649 2.42181 3.57205 2.44406 3.54002C2.84015 2.9719 4.33078 3.30378 5.77171 4.28253C5.96025 4.41054 6.13795 4.54338 6.30445 4.67867C5.95757 4.23396 5.45132 3.76428 4.83421 3.34503C3.39328 2.36628 1.90265 2.0344 1.50656 2.60253C1.48431 2.63455 1.46575 2.66899 1.45125 2.70518C1.25765 3.18706 1.74468 4.02518 2.63718 4.81221C2.70693 4.87385 2.78006 4.93498 2.85473 4.99577C2.44129 4.46524 2.25679 3.97118 2.38875 3.64268Z" fill="#A07A27"/>
</svg>
