<svg width="25" height="24" viewBox="0 0 25 24" fill="none" xmlns="http://www.w3.org/2000/svg">
<g clip-path="url(#clip0_129_1051)">
<mask id="mask0_129_1051" style="mask-type:luminance" maskUnits="userSpaceOnUse" x="0" y="0" width="25" height="24">
<path d="M24.75 0H0V24H24.75V0Z" fill="white"/>
</mask>
<g mask="url(#mask0_129_1051)">
<path fill-rule="evenodd" clip-rule="evenodd" d="M6.75 2.09524V21.9048C6.75 23.0619 7.6734 24 8.8125 24H22.6875C23.8266 24 24.75 23.0619 24.75 21.9048V5.51345C24.75 4.95377 24.5296 4.41734 24.1378 4.02377L20.7359 0.60556C20.3498 0.217597 19.8286 0 19.2855 0H8.8125C7.6734 0 6.75 0.93807 6.75 2.09524ZM8.0625 21.9048V2.09524C8.0625 1.67445 8.39828 1.33334 8.8125 1.33334H19.0312V5.90477C19.0312 6.69374 19.6609 7.33333 20.4375 7.33333H23.4375V21.9048C23.4375 22.3256 23.1017 22.6667 22.6875 22.6667H8.8125C8.39828 22.6667 8.0625 22.3256 8.0625 21.9048ZM23.4375 6V5.51345C23.4375 5.30993 23.3573 5.11487 23.2149 4.97175L20.3438 2.08691V5.90477C20.3438 5.95736 20.3857 6 20.4375 6H23.4375Z" fill="#A3A6B7"/>
<path fill-rule="evenodd" clip-rule="evenodd" d="M16.125 9.84375C16.125 9.48135 16.4189 9.1875 16.7812 9.1875H21.0938C21.4562 9.1875 21.75 9.48135 21.75 9.84375C21.75 10.2062 21.4562 10.5 21.0938 10.5H16.7812C16.4189 10.5 16.125 10.2062 16.125 9.84375Z" fill="#EF4C49" fill-opacity="0.2"/>
<path fill-rule="evenodd" clip-rule="evenodd" d="M16.125 12.8438C16.125 12.4814 16.4189 12.1875 16.7812 12.1875H21.0938C21.4562 12.1875 21.75 12.4814 21.75 12.8438C21.75 13.2062 21.4562 13.5 21.0938 13.5H16.7812C16.4189 13.5 16.125 13.2062 16.125 12.8438Z" fill="#EF4C49" fill-opacity="0.6"/>
<path fill-rule="evenodd" clip-rule="evenodd" d="M16.125 15.8438C16.125 15.4814 16.4189 15.1875 16.7812 15.1875H21.0938C21.4562 15.1875 21.75 15.4814 21.75 15.8438C21.75 16.2062 21.4562 16.5 21.0938 16.5H16.7812C16.4189 16.5 16.125 16.2062 16.125 15.8438Z" fill="#EF4C49"/>
<path d="M14.3136 8.25H0V17.25H14.3136V8.25Z" fill="#EF4C49"/>
<path d="M3.132 10.626C3.388 10.626 3.62 10.654 3.828 10.71C4.036 10.762 4.212 10.848 4.356 10.968C4.504 11.084 4.616 11.238 4.692 11.43C4.772 11.618 4.81 11.85 4.806 12.126C4.802 12.366 4.76 12.58 4.68 12.768C4.6 12.952 4.488 13.108 4.344 13.236C4.204 13.36 4.034 13.456 3.834 13.524C3.638 13.588 3.424 13.62 3.192 13.62H2.37V14.874H1.5V10.626H3.132ZM3.144 12.852C3.252 12.852 3.354 12.838 3.45 12.81C3.55 12.782 3.636 12.738 3.708 12.678C3.78 12.618 3.838 12.544 3.882 12.456C3.926 12.368 3.95 12.264 3.954 12.144C3.962 11.872 3.888 11.68 3.732 11.568C3.58 11.456 3.382 11.4 3.138 11.4H2.37V12.852H3.144Z" fill="white"/>
<path d="M5.48438 14.874V10.626H7.05038C7.25438 10.626 7.45438 10.644 7.65037 10.68C7.84635 10.712 8.03438 10.776 8.21438 10.872C8.5344 11.036 8.7744 11.278 8.93438 11.598C9.0984 11.918 9.18038 12.304 9.18038 12.756C9.18038 13.44 9.0024 13.964 8.64637 14.328C8.2944 14.692 7.77638 14.874 7.09238 14.874H5.48438ZM7.09838 14.106C7.15438 14.106 7.21438 14.102 7.27838 14.094C7.34237 14.086 7.40638 14.076 7.47037 14.064C7.53435 14.048 7.59435 14.03 7.65037 14.01C7.7064 13.99 7.7544 13.968 7.79437 13.944C7.9584 13.832 8.08035 13.674 8.16037 13.47C8.24437 13.262 8.28638 13.024 8.28638 12.756C8.28638 12.544 8.26238 12.352 8.21438 12.18C8.16638 12.008 8.09235 11.862 7.99237 11.742C7.8804 11.61 7.7364 11.52 7.56037 11.472C7.38838 11.424 7.21838 11.4 7.05038 11.4H6.35437V14.106H7.09838Z" fill="white"/>
<path d="M12.8136 10.626V11.4H10.7196V12.498H12.4776V13.26H10.7196V14.874H9.84961V10.626H12.8136Z" fill="white"/>
</g>
</g>
<defs>
<clipPath id="clip0_129_1051">
<rect width="24.75" height="24" fill="white"/>
</clipPath>
</defs>
</svg>
