<svg width="24" height="24" viewBox="0 0 24 24" fill="none" xmlns="http://www.w3.org/2000/svg">
<g clip-path="url(#clip0_137_771)">
<path d="M12.6311 22.0916L13.0302 22.1762L12.5687 22.307C12.3257 22.376 12.1402 22.5728 12.0856 22.8194L12 23.2063L11.9145 22.8194C11.8599 22.5727 11.6744 22.376 11.4313 22.307L10.9699 22.1762L11.3689 22.0916C11.6272 22.0368 11.8313 21.8388 11.8938 21.5823L12.0001 21.1461L12.1063 21.5823C12.1687 21.8388 12.3728 22.0368 12.6311 22.0916Z" fill="#BEF4DC"/>
<path d="M21.9188 9.09621C20.3959 13.1887 15.2704 16.8989 12.0042 19.7574C8.73588 16.8967 3.60849 13.1838 2.08275 9.09011C0.641568 5.64088 2.33808 1.66072 5.91859 0.359441C10.0957 -1.15866 11.9987 2.62313 11.9987 2.62313C11.9987 2.62313 13.8994 -1.15748 18.0775 0.363184C21.6587 1.66672 23.3578 5.6479 21.9188 9.09621Z" fill="#8286EA"/>
<path d="M20.9536 8.44981C19.5789 12.144 14.9522 15.4932 12.0038 18.0736C9.05354 15.4912 4.42513 12.1396 3.04785 8.44432C1.74693 5.33073 3.27836 1.73791 6.51042 0.563247C10.281 -0.807163 11.9989 2.60663 11.9989 2.60663C11.9989 2.60663 13.7146 -0.806086 17.4861 0.566632C20.7189 1.74325 22.2526 5.33704 20.9536 8.44981Z" fill="#96B3EB"/>
<path d="M14.7018 3.08501C14.9299 3.08501 15.1147 2.90037 15.1147 2.6726C15.1147 2.44484 14.9299 2.26019 14.7018 2.26019C14.4738 2.26019 14.2889 2.44484 14.2889 2.6726C14.2889 2.90037 14.4738 3.08501 14.7018 3.08501Z" fill="white"/>
<path d="M17.7141 2.80828C17.9422 2.80828 18.1271 2.62364 18.1271 2.39587C18.1271 2.1681 17.9422 1.98346 17.7141 1.98346C17.4861 1.98346 17.3012 2.1681 17.3012 2.39587C17.3012 2.62364 17.4861 2.80828 17.7141 2.80828Z" fill="white"/>
<path d="M19.8611 4.30993C20.0892 4.30993 20.274 4.12529 20.274 3.89752C20.274 3.66975 20.0892 3.48511 19.8611 3.48511C19.6331 3.48511 19.4482 3.66975 19.4482 3.89752C19.4482 4.12529 19.6331 4.30993 19.8611 4.30993Z" fill="white"/>
<path d="M20.3435 6.64245C20.5715 6.64245 20.7564 6.45781 20.7564 6.23004C20.7564 6.00227 20.5715 5.81763 20.3435 5.81763C20.1154 5.81763 19.9305 6.00227 19.9305 6.23004C19.9305 6.45781 20.1154 6.64245 20.3435 6.64245Z" fill="white"/>
<path d="M9.29818 3.08501C9.52623 3.08501 9.7111 2.90037 9.7111 2.6726C9.7111 2.44484 9.52623 2.26019 9.29818 2.26019C9.07013 2.26019 8.88525 2.44484 8.88525 2.6726C8.88525 2.90037 9.07013 3.08501 9.29818 3.08501Z" fill="white"/>
<path d="M6.28585 2.80828C6.5139 2.80828 6.69877 2.62364 6.69877 2.39587C6.69877 2.1681 6.5139 1.98346 6.28585 1.98346C6.0578 1.98346 5.87292 2.1681 5.87292 2.39587C5.87292 2.62364 6.0578 2.80828 6.28585 2.80828Z" fill="white"/>
<path d="M4.13888 4.30993C4.36693 4.30993 4.5518 4.12529 4.5518 3.89752C4.5518 3.66975 4.36693 3.48511 4.13888 3.48511C3.91082 3.48511 3.72595 3.66975 3.72595 3.89752C3.72595 4.12529 3.91082 4.30993 4.13888 4.30993Z" fill="white"/>
<path d="M3.65658 6.64245C3.88463 6.64245 4.0695 6.45781 4.0695 6.23004C4.0695 6.00227 3.88463 5.81763 3.65658 5.81763C3.42852 5.81763 3.24365 6.00227 3.24365 6.23004C3.24365 6.45781 3.42852 6.64245 3.65658 6.64245Z" fill="white"/>
<path d="M4.00628 13.4919C4.43997 14.1188 5.41741 14.4922 5.81956 14.0638C6.26607 13.6801 5.92156 12.6967 5.30648 12.2469C6.0691 12.1873 6.88982 11.5332 6.71705 10.9743C6.60643 10.4 5.57346 10.2066 4.87228 10.5109C5.20356 9.82567 5.04443 8.79639 4.46956 8.66649C3.91269 8.47639 3.22551 9.26372 3.13787 10.02C2.70417 9.39316 1.72674 9.01977 1.32458 9.44813C0.878123 9.83182 1.22258 10.8153 1.83766 11.2651C1.07505 11.3246 0.254277 11.9788 0.427098 12.5376C0.537713 13.112 1.57069 13.3054 2.27192 13.0011C1.94064 13.6863 2.09274 14.7518 2.67464 14.8455C3.69935 15.0104 3.99274 13.5792 4.00628 13.4919Z" fill="#F6E16E"/>
<path d="M3.56977 12.3237C3.88259 12.3237 4.13618 12.0696 4.13618 11.7561C4.13618 11.4427 3.88259 11.1885 3.56977 11.1885C3.25695 11.1885 3.00336 11.4427 3.00336 11.7561C3.00336 12.0696 3.25695 12.3237 3.56977 12.3237Z" fill="#F5F5F5"/>
<path d="M8.4984 18.1098C8.9321 18.7367 9.90953 19.1101 10.3117 18.6817C10.7582 18.2981 10.4137 17.3147 9.79861 16.8648C10.5612 16.8052 11.3819 16.1511 11.2092 15.5923C11.0986 15.0179 10.0656 14.8245 9.3644 15.1288C9.69569 14.4436 9.53656 13.4143 8.96169 13.2844C8.40481 13.0943 7.71763 13.8816 7.62999 14.638C7.1963 14.0111 6.21887 13.6377 5.81671 14.0661C5.37025 14.4497 5.71471 15.4332 6.32979 15.883C5.56717 15.9426 4.7464 16.5967 4.91922 17.1555C5.02984 17.7299 6.06281 17.9233 6.76404 17.619C6.43276 18.3042 6.58487 19.3697 7.16676 19.4634C8.19148 19.6284 8.48492 18.1971 8.4984 18.1098Z" fill="#F6E16E"/>
<path d="M8.06189 16.9417C8.37471 16.9417 8.6283 16.6876 8.6283 16.3741C8.6283 16.0606 8.37471 15.8065 8.06189 15.8065C7.74907 15.8065 7.49548 16.0606 7.49548 16.3741C7.49548 16.6876 7.74907 16.9417 8.06189 16.9417Z" fill="#F5F5F5"/>
<path d="M21.3231 14.8455C21.905 14.7518 22.0571 13.6863 21.7259 13.0011C22.4271 13.3054 23.4601 13.112 23.5707 12.5377C23.7434 11.9788 22.9227 11.3246 22.1601 11.2652C22.7752 10.8153 23.1197 9.83187 22.6732 9.44818C22.271 9.01982 21.2936 9.39321 20.8599 10.0201C20.7723 9.26377 20.0851 8.47649 19.5282 8.66654C18.9533 8.79644 18.7942 9.82572 19.1255 10.5109C18.4243 10.2066 17.3913 10.4001 17.2807 10.9744C17.108 11.5333 17.9287 12.1874 18.6913 12.2469C18.0762 12.6968 17.7317 13.6802 18.1782 14.0639C18.5804 14.4922 19.5578 14.1188 19.9915 13.492C20.0049 13.5792 20.2984 15.0105 21.3231 14.8455Z" fill="#F6E16E"/>
<path d="M20.4279 12.3237C20.7407 12.3237 20.9943 12.0696 20.9943 11.7561C20.9943 11.4427 20.7407 11.1885 20.4279 11.1885C20.1151 11.1885 19.8615 11.4427 19.8615 11.7561C19.8615 12.0696 20.1151 12.3237 20.4279 12.3237Z" fill="#F5F5F5"/>
<path d="M16.8309 19.4634C17.4128 19.3697 17.5649 18.3042 17.2337 17.619C17.9349 17.9233 18.9679 17.7299 19.0785 17.1555C19.2513 16.5967 18.4305 15.9425 17.6679 15.883C18.283 15.4332 18.6275 14.4497 18.181 14.066C17.7788 13.6377 16.8014 14.0111 16.3677 14.6379C16.2801 13.8816 15.5929 13.0943 15.036 13.2844C14.4612 13.4143 14.302 14.4436 14.6333 15.1288C13.9321 14.8245 12.8991 15.0179 12.7885 15.5922C12.6158 16.1511 13.4365 16.8053 14.1991 16.8648C13.584 17.3147 13.2395 18.298 13.686 18.6817C14.0882 19.1101 15.0656 18.7367 15.4993 18.1098C15.5128 18.1971 15.8062 19.6283 16.8309 19.4634Z" fill="#F6E16E"/>
<path d="M15.9358 16.9417C16.2486 16.9417 16.5022 16.6876 16.5022 16.3741C16.5022 16.0606 16.2486 15.8065 15.9358 15.8065C15.623 15.8065 15.3694 16.0606 15.3694 16.3741C15.3694 16.6876 15.623 16.9417 15.9358 16.9417Z" fill="#F5F5F5"/>
<path d="M13.1461 5.08576C11.681 4.55252 11.0145 5.87822 11.0145 5.87822C11.0145 5.87822 10.3471 4.55206 8.88243 5.08442C7.62689 5.54073 7.03202 6.93642 7.53735 8.14591C8.07238 9.5814 9.87032 10.8833 11.0164 11.8865C12.1618 10.8842 13.9591 9.58314 14.4931 8.14806C14.9977 6.93888 14.4019 5.54283 13.1461 5.08576Z" fill="#F3EBFF"/>
<path d="M8.25843 7.73306C7.86058 6.78086 8.14499 5.71363 8.89643 5.07983C8.89171 5.08153 8.88714 5.08276 8.88243 5.08445C7.62689 5.54076 7.03202 6.93645 7.53735 8.14594C8.07238 9.58142 9.87032 10.8834 11.0164 11.8866C11.2033 11.723 11.4078 11.5513 11.621 11.3726C10.4732 10.3838 8.77566 9.12086 8.25843 7.73306Z" fill="#E0BEFB"/>
<path d="M15.5002 7.00772C14.4037 6.60864 13.9049 7.60085 13.9049 7.60085C13.9049 7.60085 13.4054 6.60833 12.3092 7.00674C11.3695 7.34828 10.9242 8.3928 11.3025 9.29803C11.7029 10.3724 13.0486 11.3468 13.9063 12.0976C14.7635 11.3474 16.1087 10.3737 16.5083 9.29962C16.886 8.39464 16.4401 7.34982 15.5002 7.00772Z" fill="#A9E3CA"/>
<path d="M12.0751 8.93673C11.774 8.21606 11.9952 7.40745 12.572 6.93524C12.4884 6.95052 12.4011 6.97334 12.3092 7.00673C11.3695 7.34827 10.9243 8.39278 11.3026 9.29801C11.703 10.3724 13.0486 11.3468 13.9064 12.0975C14.0891 11.9376 14.2942 11.7674 14.5074 11.5883C13.6516 10.8595 12.4497 9.94186 12.0751 8.93673Z" fill="#71A6B8"/>
<path d="M22.922 17.1708C22.0841 16.8642 21.7029 17.6265 21.7029 17.6265C21.7029 17.6265 21.3213 16.864 20.4836 17.1701C19.7655 17.4325 19.4253 18.235 19.7144 18.9305C20.0204 19.7559 21.0486 20.5046 21.704 21.0814C22.3591 20.505 23.387 19.7569 23.6924 18.9317C23.9809 18.2364 23.6402 17.4337 22.922 17.1708Z" fill="#C66BBB"/>
<path d="M22.231 18.2586C21.8681 18.1257 21.7031 18.4559 21.7031 18.4559C21.7031 18.4559 21.5378 18.1256 21.175 18.2582C20.864 18.3718 20.7166 18.7194 20.8418 19.0207C20.9743 19.3781 21.4196 19.7024 21.7035 19.9522C21.9872 19.7026 22.4324 19.3786 22.5646 19.0212C22.6897 18.72 22.5421 18.3723 22.231 18.2586Z" fill="#D38DBF"/>
<path d="M22.658 20.8251H20.7484V21.3379H21.4468V24H21.9596V21.3379H22.658V20.8251Z" fill="#D38DBF"/>
<path d="M3.51556 17.1708C2.67767 16.8642 2.29649 17.6265 2.29649 17.6265C2.29649 17.6265 1.91485 16.864 1.07715 17.1701C0.359103 17.4325 0.0188979 18.235 0.307924 18.9305C0.613924 19.7559 1.64218 20.5046 2.29762 21.0814C2.95264 20.505 3.98054 19.7569 4.28592 18.9317C4.57454 18.2364 4.23382 17.4337 3.51556 17.1708Z" fill="#C66BBB"/>
<path d="M2.82464 18.2586C2.46177 18.1257 2.29669 18.4559 2.29669 18.4559C2.29669 18.4559 2.13141 18.1256 1.76859 18.2582C1.45761 18.3718 1.31023 18.7194 1.43541 19.0207C1.56792 19.3781 2.01325 19.7024 2.29715 19.9522C2.58084 19.7026 3.02602 19.3786 3.15828 19.0212C3.28325 18.72 3.13571 18.3723 2.82464 18.2586Z" fill="#D38DBF"/>
<path d="M3.25161 20.8251H1.34192V21.3379H2.04038V24H2.5532V21.3379H3.25161V20.8251Z" fill="#D38DBF"/>
<path d="M7.65867 23.3826H4.71057V23.8954H7.65867V23.3826Z" fill="#ECE4F9"/>
<path d="M9.483 23.3826H8.66095V23.8954H9.483V23.3826Z" fill="#ECE4F9"/>
<path d="M7.65864 21.3207H5.7428V21.8335H7.65864V21.3207Z" fill="#ECE4F9"/>
<path d="M19.2894 23.3826H16.3413V23.8954H19.2894V23.3826Z" fill="#ECE4F9"/>
<path d="M15.3391 23.3826H14.517V23.8954H15.3391V23.3826Z" fill="#ECE4F9"/>
<path d="M18.2572 21.3207H16.3413V21.8335H18.2572V21.3207Z" fill="#ECE4F9"/>
</g>
<defs>
<clipPath id="clip0_137_771">
<rect width="24" height="24" fill="white"/>
</clipPath>
</defs>
</svg>
