<svg width="80" height="80" viewBox="0 0 80 80" fill="none" xmlns="http://www.w3.org/2000/svg">
<g clip-path="url(#clip0_91_42483)">
<path d="M40 80C62.0548 80 80 62.0565 80 40C80 36.193 79.4686 32.4414 78.4163 28.8485C77.8979 27.0817 76.0531 26.0669 74.2814 26.5853C72.513 27.1021 71.5015 28.9534 72.0182 30.7202C72.8898 33.7052 73.3333 36.8286 73.3333 40C73.3333 58.3797 58.3797 73.3333 40 73.3333C21.6203 73.3333 6.66667 58.3797 6.66667 40C6.66667 21.6203 21.6203 6.66667 40 6.66667C46.6797 6.66667 53.1063 8.61979 58.5848 12.3136C60.1099 13.3431 62.1834 12.9386 63.2113 11.4136C64.2399 9.88688 63.8387 7.81494 62.312 6.7863C55.7284 2.34701 48.0135 0 40 0C17.9451 0 0 17.9435 0 40C0 62.0565 17.9451 80 40 80Z" fill="#EF4C49"/>
<path d="M74.308 7.64323L39.9981 41.9515L29.0215 30.9766C27.7194 29.6753 25.6101 29.6753 24.308 30.9766C23.0067 32.2786 23.0067 34.388 24.308 35.6901L37.6413 49.0234C38.2932 49.6753 39.1444 50 39.9981 50C40.8518 50 41.703 49.6753 42.3549 49.0234L79.0215 12.3568C80.3228 11.0547 80.3228 8.94531 79.0215 7.64323C77.7195 6.34196 75.6101 6.34196 74.308 7.64323Z" fill="#EF4C49"/>
</g>
<defs>
<clipPath id="clip0_91_42483">
<rect width="80" height="80" fill="white"/>
</clipPath>
</defs>
</svg>
