<svg width="24" height="24" viewBox="0 0 24 24" fill="none" xmlns="http://www.w3.org/2000/svg">
<path d="M14.5 3C12.7761 3 11.1228 3.68482 9.90381 4.90381C8.68482 6.12279 8 7.77609 8 9.5C8 11.2239 8.68482 12.8772 9.90381 14.0962C11.1228 15.3152 12.7761 16 14.5 16C16.2239 16 17.8772 15.3152 19.0962 14.0962C20.3152 12.8772 21 11.2239 21 9.5C21 7.77609 20.3152 6.12279 19.0962 4.90381C17.8772 3.68482 16.2239 3 14.5 3Z" fill="#D87B00"/>
<path d="M9.5 8C7.77609 8 6.12279 8.68482 4.90381 9.90381C3.68482 11.1228 3 12.7761 3 14.5C3 16.2239 3.68482 17.8772 4.90381 19.0962C6.12279 20.3152 7.77609 21 9.5 21C11.2239 21 12.8772 20.3152 14.0962 19.0962C15.3152 17.8772 16 16.2239 16 14.5C16 12.7761 15.3152 11.1228 14.0962 9.90381C12.8772 8.68482 11.2239 8 9.5 8Z" fill="#FFB300"/>
<path d="M8.75 13C8.41848 13 8.10054 13.1317 7.86612 13.3661C7.6317 13.6005 7.5 13.9185 7.5 14.25C7.5 14.5815 7.6317 14.8995 7.86612 15.1339C8.10054 15.3683 8.41848 15.5 8.75 15.5C9.08152 15.5 9.39946 15.3683 9.63388 15.1339C9.8683 14.8995 10 14.5815 10 14.25C10 13.9185 9.8683 13.6005 9.63388 13.3661C9.39946 13.1317 9.08152 13 8.75 13ZM9.75 10C9.55109 10 9.36032 10.079 9.21967 10.2197C9.07902 10.3603 9 10.5511 9 10.75C9 10.9489 9.07902 11.1397 9.21967 11.2803C9.36032 11.421 9.55109 11.5 9.75 11.5C9.94891 11.5 10.1397 11.421 10.2803 11.2803C10.421 11.1397 10.5 10.9489 10.5 10.75C10.5 10.5511 10.421 10.3603 10.2803 10.2197C10.1397 10.079 9.94891 10 9.75 10ZM11.5 16C11.2348 16 10.9804 16.1054 10.7929 16.2929C10.6054 16.4804 10.5 16.7348 10.5 17C10.5 17.2652 10.6054 17.5196 10.7929 17.7071C10.9804 17.8946 11.2348 18 11.5 18C11.7652 18 12.0196 17.8946 12.2071 17.7071C12.3946 17.5196 12.5 17.2652 12.5 17C12.5 16.7348 12.3946 16.4804 12.2071 16.2929C12.0196 16.1054 11.7652 16 11.5 16ZM5.75 14.5C5.55109 14.5 5.36032 14.579 5.21967 14.7197C5.07902 14.8603 5 15.0511 5 15.25C5 15.4489 5.07902 15.6397 5.21967 15.7803C5.36032 15.921 5.55109 16 5.75 16C5.94891 16 6.13968 15.921 6.28033 15.7803C6.42098 15.6397 6.5 15.4489 6.5 15.25C6.5 15.0511 6.42098 14.8603 6.28033 14.7197C6.13968 14.579 5.94891 14.5 5.75 14.5ZM12.7505 12.9995C12.5516 12.9995 12.3608 13.0785 12.2202 13.2192C12.0795 13.3598 12.0005 13.5506 12.0005 13.7495C12.0005 13.9484 12.0795 14.1392 12.2202 14.2798C12.3608 14.4205 12.5516 14.4995 12.7505 14.4995C12.9494 14.4995 13.1402 14.4205 13.2808 14.2798C13.4215 14.1392 13.5005 13.9484 13.5005 13.7495C13.5005 13.5506 13.4215 13.3598 13.2808 13.2192C13.1402 13.0785 12.9494 12.9995 12.7505 12.9995ZM8 17.5C7.86739 17.5 7.74021 17.5527 7.64645 17.6464C7.55268 17.7402 7.5 17.8674 7.5 18C7.5 18.1326 7.55268 18.2598 7.64645 18.3536C7.74021 18.4473 7.86739 18.5 8 18.5C8.13261 18.5 8.25979 18.4473 8.35355 18.3536C8.44732 18.2598 8.5 18.1326 8.5 18C8.5 17.8674 8.44732 17.7402 8.35355 17.6464C8.25979 17.5527 8.13261 17.5 8 17.5Z" fill="#683529"/>
<path d="M13 5C12.7348 5 12.4804 5.10536 12.2929 5.29289C12.1054 5.48043 12 5.73478 12 6C12 6.26522 12.1054 6.51957 12.2929 6.70711C12.4804 6.89464 12.7348 7 13 7C13.2652 7 13.5196 6.89464 13.7071 6.70711C13.8946 6.51957 14 6.26522 14 6C14 5.73478 13.8946 5.48043 13.7071 5.29289C13.5196 5.10536 13.2652 5 13 5ZM15.7495 7.4995C15.5506 7.4995 15.3598 7.57852 15.2192 7.71917C15.0785 7.85982 14.9995 8.05059 14.9995 8.2495C14.9995 8.44841 15.0785 8.63918 15.2192 8.77983C15.3598 8.92048 15.5506 8.9995 15.7495 8.9995C15.9484 8.9995 16.1392 8.92048 16.2798 8.77983C16.4205 8.63918 16.4995 8.44841 16.4995 8.2495C16.4995 8.05059 16.4205 7.85982 16.2798 7.71917C16.1392 7.57852 15.9484 7.4995 15.7495 7.4995ZM16.2495 4.5C16.0506 4.5 15.8598 4.57902 15.7192 4.71967C15.5785 4.86032 15.4995 5.05109 15.4995 5.25C15.4995 5.44891 15.5785 5.63968 15.7192 5.78033C15.8598 5.92098 16.0506 6 16.2495 6C16.4484 6 16.6392 5.92098 16.7798 5.78033C16.9205 5.63968 16.9995 5.44891 16.9995 5.25C16.9995 5.05109 16.9205 4.86032 16.7798 4.71967C16.6392 4.57902 16.4484 4.5 16.2495 4.5ZM18 10C17.8674 10 17.7402 10.0527 17.6464 10.1464C17.5527 10.2402 17.5 10.3674 17.5 10.5C17.5 10.6326 17.5527 10.7598 17.6464 10.8536C17.7402 10.9473 17.8674 11 18 11C18.1326 11 18.2598 10.9473 18.3536 10.8536C18.4473 10.7598 18.5 10.6326 18.5 10.5C18.5 10.3674 18.4473 10.2402 18.3536 10.1464C18.2598 10.0527 18.1326 10 18 10Z" fill="#4C2114"/>
</svg>
